<?xml version="1.0" encoding="UTF-8"?>
<svg version="1.1" xmlns="http://www.w3.org/2000/svg" width="1024" height="1024">
<path d="M0 0 C1.24373131 0.00493217 1.24373131 0.00493217 2.5125885 0.00996399 C5.16647502 0.02569434 7.81909789 0.06964592 10.47265625 0.11328125 C12.22329676 0.12478051 13.97394944 0.13456333 15.72460938 0.14257812 C48.47139081 0.3725534 48.47139081 0.3725534 56.93359375 8.5703125 C60.54677078 12.30875151 63.68653015 16.32064842 66.78515625 20.48828125 C67.91476063 21.98352937 69.04497955 23.47831342 70.17578125 24.97265625 C70.73587891 25.71580078 71.29597656 26.45894531 71.87304688 27.22460938 C74.40599762 30.57905765 76.96008416 33.91608184 79.53515625 37.23828125 C79.96731445 37.80619385 80.39947266 38.37410645 80.84472656 38.95922852 C85.47494469 44.91301055 89.22107176 47.73654744 96.671875 49.20703125 C97.35135696 49.34725708 98.03083893 49.48748291 98.73091125 49.63195801 C100.89235694 50.07669699 103.05685237 50.50281989 105.22265625 50.92578125 C130.55733438 55.93489736 130.55733438 55.93489736 136.421875 63.69921875 C139.97944881 69.21657883 140.5607378 75.05225733 140.67578125 81.5 C140.70478516 82.87188477 140.70478516 82.87188477 140.734375 84.27148438 C140.76843469 86.17751725 140.78647413 88.08389897 140.7890625 89.99023438 C140.85824303 92.56265766 140.95747583 94.91727941 141.53515625 97.42578125 C143.87152593 99.53537834 143.87152593 99.53537834 146.53515625 100.42578125 C149.06274949 105.48096772 148.05372917 112.78363367 146.41015625 117.98828125 C143.65125946 121.57484707 140.99222171 122.93146039 136.5546875 123.82421875 C127.96822838 124.91784693 119.17367969 124.51047266 110.53515625 124.42578125 C110.12265625 123.49636719 109.71015625 122.56695313 109.28515625 121.609375 C104.39303765 110.98082735 98.82689036 103.743209 87.53515625 99.42578125 C84.64820439 98.58338153 84.64820439 98.58338153 81.53515625 98.42578125 C80.80683594 98.36261719 80.07851563 98.29945313 79.328125 98.234375 C70.26250294 97.79180132 61.60071585 100.67474436 54.53515625 106.42578125 C48.4830242 111.96317011 46.87000066 117.42215467 43.53515625 125.42578125 C13.50515625 125.42578125 -16.52484375 125.42578125 -47.46484375 125.42578125 C-48.78484375 121.79578125 -50.10484375 118.16578125 -51.46484375 114.42578125 C-55.85717078 106.77058271 -62.09823726 102.3353128 -70.46484375 99.55078125 C-81.30116419 96.71589247 -90.91369612 98.89725519 -100.46484375 104.42578125 C-107.56267473 108.81967662 -110.89105687 117.17247416 -114.46484375 124.42578125 C-118.2981117 124.48438013 -122.13126263 124.51957768 -125.96484375 124.55078125 C-127.0425 124.56753906 -128.12015625 124.58429688 -129.23046875 124.6015625 C-135.33437249 124.63878143 -140.66209493 124.3958918 -146.46484375 122.42578125 C-150.83752556 118.05309944 -151.5878955 114.49472652 -151.62597656 108.47314453 C-151.63558411 107.24822296 -151.64519165 106.02330139 -151.65509033 104.76126099 C-151.6599383 103.4228738 -151.66421713 102.08448446 -151.66796875 100.74609375 C-151.67372292 99.37230427 -151.67948062 97.9985148 -151.6852417 96.62472534 C-151.69574182 93.74476752 -151.70159098 90.86483754 -151.70507812 87.98486328 C-151.71056165 84.30054369 -151.73459035 80.61659388 -151.76305008 76.93239021 C-151.78170401 74.09446142 -151.7868835 71.25662124 -151.788414 68.41863632 C-151.79143473 67.06069797 -151.79944372 65.70276096 -151.81259918 64.34488297 C-151.82971569 62.44239911 -151.82592652 60.53976223 -151.82128906 58.63720703 C-151.82493469 57.55593536 -151.82858032 56.4746637 -151.83233643 55.36062622 C-151.40619836 51.95743139 -150.55508987 50.13190676 -148.46484375 47.42578125 C-145.26933542 45.39337551 -142.72098168 45.16868698 -138.97259521 45.14730835 C-137.85642822 45.13614487 -136.74026123 45.12498138 -135.590271 45.11347961 C-134.37035461 45.11131943 -133.15043823 45.10915924 -131.89355469 45.10693359 C-129.96147156 45.09186516 -129.96147156 45.09186516 -127.99035645 45.07649231 C-124.46179286 45.04919573 -120.93326919 45.03404397 -117.4046278 45.02106428 C-113.71568919 45.00543222 -110.02683207 44.97864224 -106.33795166 44.95303345 C-99.35408677 44.90624697 -92.37020655 44.86950225 -85.38626504 44.83636057 C-77.43464083 44.79813825 -69.48309847 44.74872838 -61.53154325 44.69837642 C-45.17603554 44.59505852 -28.82048241 44.50579768 -12.46484375 44.42578125 C-12.48579102 43.23500977 -12.50673828 42.04423828 -12.52832031 40.81738281 C-12.60075337 36.39693236 -12.64665547 31.97653429 -12.68457031 27.55566406 C-12.70467827 25.6428139 -12.73196882 23.73002514 -12.76660156 21.81738281 C-12.81515624 19.06690314 -12.83782033 16.31723648 -12.85546875 13.56640625 C-12.87611389 12.71210022 -12.89675903 11.85779419 -12.91802979 10.9776001 C-12.92025775 5.07424784 -12.92025775 5.07424784 -10.67967224 1.88386536 C-7.29308581 -0.34562007 -3.91394693 -0.08656057 0 0 Z M7.53515625 16.42578125 C7.53515625 27.64578125 7.53515625 38.86578125 7.53515625 50.42578125 C27.00515625 50.42578125 46.47515625 50.42578125 66.53515625 50.42578125 C65.61545369 45.6501219 65.61545369 45.6501219 63.3828125 41.82421875 C62.94090576 41.17404785 62.49899902 40.52387695 62.04370117 39.85400391 C61.32790894 38.83765869 61.32790894 38.83765869 60.59765625 37.80078125 C60.10692627 37.09872559 59.61619629 36.39666992 59.1105957 35.67333984 C50.86723342 23.43670994 50.86723342 23.43670994 38.53515625 16.42578125 C34.95855183 16.15274109 34.95855183 16.15274109 31.16796875 16.23046875 C29.92418457 16.23546387 28.68040039 16.24045898 27.39892578 16.24560547 C25.83513184 16.26381348 24.27133789 16.28202148 22.66015625 16.30078125 C15.17328125 16.36265625 15.17328125 16.36265625 7.53515625 16.42578125 Z M-145.46484375 73.42578125 C-145.46484375 78.04578125 -145.46484375 82.66578125 -145.46484375 87.42578125 C-142.82484375 87.42578125 -140.18484375 87.42578125 -137.46484375 87.42578125 C-137.46484375 82.80578125 -137.46484375 78.18578125 -137.46484375 73.42578125 C-140.10484375 73.42578125 -142.74484375 73.42578125 -145.46484375 73.42578125 Z M123.53515625 75.42578125 C123.19946083 79.62197406 123.34828064 82.04510871 125.22265625 85.86328125 C127.25676047 88.71881845 127.25676047 88.71881845 130.1796875 88.5859375 C131.34564453 88.50666016 131.34564453 88.50666016 132.53515625 88.42578125 C132.61623208 86.48896964 132.674381 84.55118785 132.72265625 82.61328125 C132.75746094 81.53433594 132.79226563 80.45539063 132.828125 79.34375 C132.785637 76.43131866 132.785637 76.43131866 131.1484375 74.5390625 C128.19503234 72.50099841 126.44045779 73.8762871 123.53515625 75.42578125 Z " fill="#173671" transform="translate(266.46484375,430.57421875)"/>
<path d="M0 0 C5.94 0 11.88 0 18 0 C24.0610846 7.24543446 24.0610846 7.24543446 25.69140625 10.6171875 C28.05361827 15.22976635 30.89597871 19.39282385 33.875 23.625 C34.55453735 24.61790039 34.55453735 24.61790039 35.24780273 25.63085938 C37.69935237 29.21040578 40.26957847 32.62432421 43 36 C42.99476318 34.94498291 42.98952637 33.88996582 42.98413086 32.80297852 C42.96608099 28.9024337 42.95456805 25.0018926 42.94506836 21.10131836 C42.9400281 19.41055684 42.93319595 17.71979971 42.92456055 16.02905273 C42.91248143 13.60399293 42.90676877 11.17899056 42.90234375 8.75390625 C42.89718246 7.99348526 42.89202118 7.23306427 42.88670349 6.44960022 C42.88650762 4.6326743 42.93802723 2.81586873 43 1 C43.33 0.67 43.66 0.34 44 0 C49.94 0 55.88 0 62 0 C62 22.77 62 45.54 62 69 C56.06 69 50.12 69 44 69 C40.173789 65.06896131 38.44572858 62.65746946 36 58 C34.52527512 55.83671842 33.02443044 53.69104705 31.5 51.5625 C27.25130202 45.42639964 23.1421721 39.21325815 19 33 C18.67 44.88 18.34 56.76 18 69 C12.06 69 6.12 69 0 69 C0 46.23 0 23.46 0 0 Z " fill="#17366F" transform="translate(784,490)"/>
<path d="M0 0 C1.18613892 0.00785522 1.18613892 0.00785522 2.39624023 0.01586914 C3.16524658 0.0183667 3.93425293 0.02086426 4.7265625 0.0234375 C5.70939209 0.0325415 6.69222168 0.04164551 7.70483398 0.05102539 C12.37639648 0.08196289 12.37639648 0.08196289 17.14233398 0.11352539 C17.14233398 8.69352539 17.14233398 17.27352539 17.14233398 26.11352539 C24.40233398 26.11352539 31.66233398 26.11352539 39.14233398 26.11352539 C39.14233398 17.53352539 39.14233398 8.95352539 39.14233398 0.11352539 C45.74233398 0.11352539 52.34233398 0.11352539 59.14233398 0.11352539 C59.14233398 22.88352539 59.14233398 45.65352539 59.14233398 69.11352539 C52.54233398 69.11352539 45.94233398 69.11352539 39.14233398 69.11352539 C39.14233398 60.53352539 39.14233398 51.95352539 39.14233398 43.11352539 C28.25233398 42.61852539 28.25233398 42.61852539 17.14233398 42.11352539 C17.14233398 51.02352539 17.14233398 59.93352539 17.14233398 69.11352539 C14.02795898 69.13415039 10.91358398 69.15477539 7.70483398 69.17602539 C6.2305896 69.1896814 6.2305896 69.1896814 4.7265625 69.20361328 C3.95755615 69.20611084 3.1885498 69.2086084 2.39624023 69.21118164 C1.60548096 69.21641846 0.81472168 69.22165527 0 69.22705078 C-1.85766602 69.11352539 -1.85766602 69.11352539 -2.85766602 68.11352539 C-2.95710574 66.0327713 -2.98566198 63.94860691 -2.98706055 61.86547852 C-2.98881287 61.21344955 -2.99056519 60.56142059 -2.99237061 59.88963318 C-2.99678806 57.72465386 -2.99385153 55.5597556 -2.99047852 53.39477539 C-2.99115159 51.89644352 -2.99212164 50.39811176 -2.99337769 48.89978027 C-2.99485451 45.75568607 -2.9927006 42.61162022 -2.98803711 39.4675293 C-2.98233982 35.42866 -2.98561891 31.38985715 -2.99160957 27.3509903 C-2.9952156 24.25587459 -2.99407641 21.16077474 -2.99148178 18.06565857 C-2.99081263 16.57604464 -2.99164054 15.08642929 -2.99396133 13.59681702 C-2.99648855 11.51836304 -2.99264634 9.44001808 -2.98706055 7.36157227 C-2.98626495 6.17656128 -2.98546936 4.99155029 -2.98464966 3.77062988 C-2.8126649 0.17188713 -2.8126649 0.17188713 0 0 Z " fill="#163670" transform="translate(467.857666015625,489.886474609375)"/>
<path d="M0 0 C6.6 0 13.2 0 20 0 C20.01458252 1.45817139 20.02916504 2.91634277 20.04418945 4.41870117 C20.10219647 9.83284937 20.17942995 15.24658273 20.26245117 20.66040039 C20.29568906 23.00277978 20.3237245 25.34523904 20.34643555 27.68774414 C20.38000168 31.05649833 20.43232019 34.42452131 20.48828125 37.79296875 C20.49467117 38.83897751 20.5010611 39.88498627 20.50764465 40.96269226 C20.59398318 47.98716508 20.59398318 47.98716508 24 54 C27.42176689 56.56632517 30.84640421 56.36435051 35 56 C38.31786345 54.67285462 39.62255233 53.82839394 41.11083984 50.56201172 C42.31727099 45.72899953 42.35654888 41.097386 42.4140625 36.1328125 C42.43342865 35.09808807 42.4527948 34.06336365 42.4727478 32.99728394 C42.53231842 29.70660533 42.57883905 26.41589132 42.625 23.125 C42.66320048 20.88800595 42.70225341 18.65102628 42.7421875 16.4140625 C42.83800138 10.94283642 42.92311431 5.47152305 43 0 C46.14581423 -0.02888514 49.29159469 -0.04675923 52.4375 -0.0625 C53.33533203 -0.07087891 54.23316406 -0.07925781 55.15820312 -0.08789062 C56.01220703 -0.09111328 56.86621094 -0.09433594 57.74609375 -0.09765625 C58.53685303 -0.10289307 59.3276123 -0.10812988 60.14233398 -0.11352539 C62 0 62 0 63 1 C63.1139113 3.86616147 63.16420526 6.70720247 63.16796875 9.57421875 C63.17296135 10.88734795 63.17296135 10.88734795 63.17805481 12.227005 C63.18313433 14.09249343 63.18546282 15.957991 63.18530273 17.82348633 C63.1874563 20.6305331 63.20550755 23.43716526 63.22460938 26.24414062 C63.32310417 56.38690304 63.32310417 56.38690304 55 66 C45.40587186 74.23824957 35.11292999 74.86067939 23 74 C15.41401885 72.92841385 9.94699756 68.73018956 5 63 C1.60733268 57.2988235 -0.13024882 51.578531 -0.11352539 44.95605469 C-0.11344986 43.95531921 -0.11337433 42.95458374 -0.11329651 41.92352295 C-0.10813522 40.85047913 -0.10297394 39.7774353 -0.09765625 38.671875 C-0.0962413 37.56773254 -0.09482635 36.46359009 -0.09336853 35.32598877 C-0.08777258 31.80063158 -0.07522079 28.27533798 -0.0625 24.75 C-0.05748448 22.35937592 -0.05292166 19.96875084 -0.04882812 17.578125 C-0.03780447 11.71872551 -0.02054257 5.85937354 0 0 Z " fill="#16356F" transform="translate(588,400)"/>
<path d="M0 0 C-0.60355408 3.85025879 -1.76772603 6.86101159 -3.5625 10.3125 C-4.01753906 11.19550781 -4.47257813 12.07851563 -4.94140625 12.98828125 C-5.46541016 13.98408203 -5.46541016 13.98408203 -6 15 C-6.78375 14.731875 -7.5675 14.46375 -8.375 14.1875 C-9.57125 13.795625 -10.7675 13.40375 -12 13 C-12.76183594 12.72414063 -13.52367187 12.44828125 -14.30859375 12.1640625 C-20.38024431 10.09913298 -24.68143414 9.87896412 -31 11 C-31.99 13.475 -31.99 13.475 -33 16 C-30.25750467 18.23129482 -27.88424653 19.5606756 -24.515625 20.61328125 C-23.23558594 21.0319043 -23.23558594 21.0319043 -21.9296875 21.45898438 C-20.1607932 22.02240042 -18.38997689 22.57982172 -16.6171875 23.13085938 C-9.38290139 25.51513235 -3.36560327 28.48432083 0.9765625 34.9375 C2.14916299 38.44635032 2.39932205 41.30304788 2.375 45 C2.38660156 46.7634375 2.38660156 46.7634375 2.3984375 48.5625 C1.59903517 55.45930446 -1.74850214 59.17886802 -6.8671875 63.45703125 C-9.79699849 65.57658316 -12.60278141 66.77700131 -16 68 C-16.99 68.495 -16.99 68.495 -18 69 C-31.84649741 69.0782288 -44.45355982 67.15042836 -56 59 C-54.62712658 55.30123909 -52.93644547 52.0485524 -50.875 48.6875 C-50.33617187 47.80449219 -49.79734375 46.92148437 -49.2421875 46.01171875 C-48.83226562 45.34785156 -48.42234375 44.68398438 -48 44 C-47.10796875 44.42152344 -46.2159375 44.84304688 -45.296875 45.27734375 C-44.12640625 45.82519531 -42.9559375 46.37304688 -41.75 46.9375 C-40.58984375 47.48277344 -39.4296875 48.02804687 -38.234375 48.58984375 C-34.14974311 50.37070379 -30.93851881 51.14949898 -26.5 51.1875 C-25.7471875 51.20167969 -24.994375 51.21585937 -24.21875 51.23046875 C-21.75135827 50.97417278 -20.13643744 50.22845153 -18 49 C-18.495 46.03 -18.495 46.03 -19 43 C-19.93005859 42.67128906 -19.93005859 42.67128906 -20.87890625 42.3359375 C-26.57191349 40.29739342 -32.23715381 38.1862029 -37.875 36 C-38.5047876 35.7632959 -39.1345752 35.5265918 -39.78344727 35.28271484 C-45.05797059 33.21110736 -48.86582606 30.94429819 -51.75 26 C-54.39098347 19.66163967 -55.00747505 13.50399985 -52.9375 6.875 C-50.35472778 0.77678781 -45.43595278 -2.54376918 -39.625 -5.375 C-26.46933219 -10.14794045 -11.58199789 -7.26999508 0 0 Z " fill="#15356E" transform="translate(521,406)"/>
<path d="M0 0 C16.17 0 32.34 0 49 0 C49 5.28 49 10.56 49 16 C39.1 16 29.2 16 19 16 C19 19.63 19 23.26 19 27 C27.58 27 36.16 27 45 27 C45 31.95 45 36.9 45 42 C36.42 42 27.84 42 19 42 C19 45.63 19 49.26 19 53 C29.23 53 39.46 53 50 53 C51.43316898 55.86633795 51.13200361 58.37235501 51.125 61.5625 C51.12886719 63.32787109 51.12886719 63.32787109 51.1328125 65.12890625 C51 68 51 68 50 69 C48.43452952 69.09326716 46.86487228 69.11745582 45.29663086 69.11352539 C44.28161499 69.11340454 43.26659912 69.11328369 42.2208252 69.11315918 C41.14635132 69.10804321 40.07187744 69.10292725 38.96484375 69.09765625 C37.98294067 69.09664917 37.0010376 69.09564209 35.98937988 69.09460449 C32.30540812 69.08935445 28.62145294 69.07539332 24.9375 69.0625 C16.708125 69.041875 8.47875 69.02125 0 69 C0 46.23 0 23.46 0 0 Z " fill="#17366F" transform="translate(726,490)"/>
<path d="M0 0 C0.83265381 0.00523682 1.66530762 0.01047363 2.52319336 0.01586914 C3.42231445 0.0190918 4.32143555 0.02231445 5.24780273 0.02563477 C6.66609375 0.03820312 6.66609375 0.03820312 8.11303711 0.05102539 C9.06243164 0.05553711 10.01182617 0.06004883 10.98999023 0.06469727 C13.34356776 0.07652429 15.69702188 0.09300514 18.05053711 0.11352539 C23.74352783 14.28252975 29.38895469 28.46968562 34.98803711 42.67602539 C35.40863907 43.74226639 35.40863907 43.74226639 35.83773804 44.83004761 C37.5828282 49.25497202 39.3189921 53.6832836 41.05053711 58.11352539 C41.39487793 58.98219238 41.73921875 59.85085938 42.09399414 60.74584961 C43.24374982 63.69785235 44.05053711 65.91399634 44.05053711 69.11352539 C37.78053711 69.11352539 31.51053711 69.11352539 25.05053711 69.11352539 C21.17553711 59.48852539 21.17553711 59.48852539 20.05053711 56.11352539 C12.13053711 56.11352539 4.21053711 56.11352539 -3.94946289 56.11352539 C-5.59946289 60.40352539 -7.24946289 64.69352539 -8.94946289 69.11352539 C-15.21946289 69.11352539 -21.48946289 69.11352539 -27.94946289 69.11352539 C-27.26823972 65.02618635 -26.74647314 62.16131903 -25.31274414 58.46118164 C-24.98612793 57.61080322 -24.65951172 56.7604248 -24.32299805 55.88427734 C-23.97285645 54.9905542 -23.62271484 54.09683105 -23.26196289 53.17602539 C-22.89893066 52.23654053 -22.53589844 51.29705566 -22.16186523 50.32910156 C-19.71338439 44.01132975 -17.20372438 37.71946171 -14.66430664 31.43774414 C-11.77760754 24.22368753 -9.04440194 16.94763412 -6.2878418 9.68310547 C-5.87066895 8.59022217 -5.45349609 7.49733887 -5.02368164 6.37133789 C-4.64816162 5.38278809 -4.2726416 4.39423828 -3.88574219 3.37573242 C-2.55005971 0.14850066 -2.55005971 0.14850066 0 0 Z M7.05053711 21.11352539 C6.04476698 23.88238662 5.04573564 26.65336643 4.05053711 29.42602539 C3.76436523 30.21170898 3.47819336 30.99739258 3.18334961 31.80688477 C2.91264648 32.56420898 2.64194336 33.3215332 2.36303711 34.10180664 C2.11166992 34.79830322 1.86030273 35.4947998 1.60131836 36.21240234 C0.91140175 38.26389339 0.91140175 38.26389339 1.05053711 41.11352539 C3.00857218 41.16741626 4.9670262 41.20626756 6.92553711 41.23852539 C8.01608398 41.26172852 9.10663086 41.28493164 10.23022461 41.30883789 C13.18764221 41.41413073 13.18764221 41.41413073 15.05053711 39.11352539 C14.10100251 36.29776714 13.14145086 33.4861605 12.17553711 30.67602539 C11.90612305 29.87358398 11.63670898 29.07114258 11.35913086 28.24438477 C11.09487305 27.48061523 10.83061523 26.7168457 10.55834961 25.92993164 C10.31745605 25.22296143 10.0765625 24.51599121 9.82836914 23.78759766 C9.16867952 21.91313734 9.16867952 21.91313734 7.05053711 21.11352539 Z " fill="#16356F" transform="translate(558.949462890625,489.886474609375)"/>
<path d="M0 0 C5.56875 -0.0825 11.1375 -0.165 16.875 -0.25 C18.61120605 -0.28641602 20.34741211 -0.32283203 22.13623047 -0.36035156 C31.96744896 -0.47983637 39.38078946 0.45745423 47.875 5.8125 C54.22572958 12.35001575 55.3044793 19.15906223 55.21875 27.95703125 C54.76554039 34.26150062 52.51286526 39.48713474 48 44 C38.84992079 50.27946612 29.86050153 50.22864214 19 50 C19 56.27 19 62.54 19 69 C12.73 69 6.46 69 0 69 C0 46.23 0 23.46 0 0 Z M19 16 C19 21.94 19 27.88 19 34 C21.0625 34.0825 23.125 34.165 25.25 34.25 C26.41015625 34.29640625 27.5703125 34.3428125 28.765625 34.390625 C32.04344893 34.25639646 32.04344893 34.25639646 34.390625 32.296875 C36.26399079 29.62323644 36.53947847 28.23723492 36.5 25 C36.5103125 24.154375 36.520625 23.30875 36.53125 22.4375 C35.80781922 19.11822937 34.75950677 17.96592313 32 16 C28.72599522 15.51736211 28.72599522 15.51736211 25.25 15.75 C22.15625 15.87375 22.15625 15.87375 19 16 Z " fill="#16366F" transform="translate(666,490)"/>
<path d="M0 0 C1.25876953 0.0002417 1.25876953 0.0002417 2.54296875 0.00048828 C10.55367163 0.14728936 17.11009289 1.90672859 23.8125 6.375 C23.69616554 11.22931964 23.45859996 14.47763895 20.5625 18.5 C17.8125 20.375 17.8125 20.375 15.4375 20.09375 C12.93402826 19.40827559 10.51194975 18.60650694 8.0625 17.75 C2.9090895 16.1482643 -0.90736439 16.43820175 -6.1875 17.375 C-6.5175 19.025 -6.8475 20.675 -7.1875 22.375 C-2.58807203 24.85161506 1.81968655 26.76016587 6.8125 28.3125 C14.32454902 30.74063706 20.29354332 33.68694412 24.8125 40.375 C26.32828428 43.40656857 26.06221927 46.25466614 26.125 49.625 C26.18107422 51.58179688 26.18107422 51.58179688 26.23828125 53.578125 C25.60728948 59.2049507 23.04059147 62.14690853 19.125 66.0625 C10.96875269 72.3055535 0.66496362 72.45429587 -9.1875 71.375 C-16.46248752 69.86743085 -22.96429393 67.42732023 -29.1875 63.375 C-27.82158831 59.83256548 -26.27818516 56.44872071 -24.5625 53.0625 C-24.11648438 52.17949219 -23.67046875 51.29648437 -23.2109375 50.38671875 C-22.87320313 49.72285156 -22.53546875 49.05898438 -22.1875 48.375 C-19.02926186 49.60627116 -15.98349395 50.95398813 -12.9375 52.4375 C-7.37973354 54.91070607 -2.04638074 56.25016757 3.875 54.4375 C4.514375 54.086875 5.15375 53.73625 5.8125 53.375 C5.8125 51.725 5.8125 50.075 5.8125 48.375 C1.37102637 45.92765739 -2.90296541 44.09734082 -7.76245117 42.61035156 C-15.7826144 40.14745903 -21.15585141 37.58018998 -26.125 30.6875 C-28.10145946 24.52559696 -28.28587153 18.07917362 -25.6875 12.0625 C-22.66211688 6.83781355 -17.98355843 3.56342658 -12.50390625 1.234375 C-8.27881671 0.13953437 -4.34885031 -0.0077658 0 0 Z " fill="#15346D" transform="translate(881.1875,488.625)"/>
<path d="M0 0 C39.15789474 0 39.15789474 0 46.875 6.375 C47.57625 7.24125 48.2775 8.1075 49 9 C49.721875 9.845625 50.44375 10.69125 51.1875 11.5625 C54.82549992 18.46215502 55.98917317 26.41580022 53.81640625 33.97265625 C51.09296347 40.7356553 46.59143319 44.95516841 40 48 C34.87220589 49.77476946 30.4752393 50.2208007 25.0625 50.125 C24.37865234 50.11597656 23.69480469 50.10695313 22.99023438 50.09765625 C21.32666713 50.07438958 19.66328369 50.03853167 18 50 C18.16371094 50.84820313 18.32742188 51.69640625 18.49609375 52.5703125 C19.30180003 58.05411186 19.05650679 63.46233433 19 69 C12.73 69 6.46 69 0 69 C0 46.23 0 23.46 0 0 Z M18 16 C18.99 16.33 19.98 16.66 21 17 C20.01 17.33 19.02 17.66 18 18 C17.97290556 20.08326131 17.95356127 22.16662441 17.9375 24.25 C17.92589844 25.41015625 17.91429687 26.5703125 17.90234375 27.765625 C17.98217908 30.40977128 18.21356222 32.49826091 19 35 C24.73711481 35.34422689 29.06983069 35.36694489 34 32 C35.91007381 29.01670747 36.24199693 26.93580944 35.875 23.4375 C35.81054688 22.67308594 35.74609375 21.90867187 35.6796875 21.12109375 C34.74066286 18.19068926 33.72002496 17.41836285 31 16 C27.72283998 15.63791904 27.72283998 15.63791904 24.25 15.8125 C23.07953125 15.83957031 21.9090625 15.86664063 20.703125 15.89453125 C19.81109375 15.92933594 18.9190625 15.96414063 18 16 Z " fill="#173670" transform="translate(607,490)"/>
<path d="M0 0 C17.16 0 34.32 0 52 0 C52 5.61 52 11.22 52 17 C41.44 17 30.88 17 20 17 C20 21.62 20 26.24 20 31 C21.93746094 30.98839844 23.87492188 30.97679687 25.87109375 30.96484375 C28.39322821 30.95546779 30.9153637 30.94636738 33.4375 30.9375 C34.71689453 30.92912109 35.99628906 30.92074219 37.31445312 30.91210938 C39.13686523 30.90727539 39.13686523 30.90727539 40.99609375 30.90234375 C42.12200928 30.89710693 43.2479248 30.89187012 44.40795898 30.88647461 C47 31 47 31 48 32 C48.09909302 34.33160055 48.12970504 36.66629942 48.125 39 C48.12886719 40.918125 48.12886719 40.918125 48.1328125 42.875 C48 46 48 46 47 47 C45.00035018 47.08758003 42.9976389 47.10696576 40.99609375 47.09765625 C39.78115234 47.09443359 38.56621094 47.09121094 37.31445312 47.08789062 C36.03505859 47.07951172 34.75566406 47.07113281 33.4375 47.0625 C32.15423828 47.05798828 30.87097656 47.05347656 29.54882812 47.04882812 C26.3658658 47.03699555 23.18292726 47.01905944 20 47 C20 55.58 20 64.16 20 73 C13.4 73 6.8 73 0 73 C0 48.91 0 24.82 0 0 Z " fill="#15356F" transform="translate(659,400)"/>
<path d="M0 0 C17.16 0 34.32 0 52 0 C52 5.61 52 11.22 52 17 C41.44 17 30.88 17 20 17 C20 21.62 20 26.24 20 31 C29.24 31 38.48 31 48 31 C48 36.28 48 41.56 48 47 C38.76 47 29.52 47 20 47 C20 55.58 20 64.16 20 73 C16.885625 73.020625 13.77125 73.04125 10.5625 73.0625 C9.08825562 73.07615601 9.08825562 73.07615601 7.58422852 73.09008789 C6.81522217 73.09258545 6.04621582 73.09508301 5.25390625 73.09765625 C4.46314697 73.10289307 3.6723877 73.10812988 2.85766602 73.11352539 C1 73 1 73 0 72 C-0.09436529 69.76070114 -0.11742327 67.5183825 -0.11352539 65.27709961 C-0.11367142 64.5746965 -0.11381744 63.8722934 -0.1139679 63.14860535 C-0.11326872 60.81648722 -0.10547617 58.484448 -0.09765625 56.15234375 C-0.09579208 54.53951562 -0.09436818 52.92668693 -0.09336853 51.31385803 C-0.08954323 47.06084643 -0.07971285 42.80786876 -0.06866455 38.55487061 C-0.05665612 33.45628308 -0.05204825 28.35768422 -0.04621124 23.25908661 C-0.03650109 15.50603411 -0.01734464 7.75305613 0 0 Z " fill="#163570" transform="translate(716,400)"/>
<path d="M0 0 C19.14 0 38.28 0 58 0 C58 5.61 58 11.22 58 17 C51.73 17 45.46 17 39 17 C39 35.48 39 53.96 39 73 C32.4 73 25.8 73 19 73 C19 54.52 19 36.04 19 17 C12.73 17 6.46 17 0 17 C0 11.39 0 5.78 0 0 Z " fill="#16356F" transform="translate(525,400)"/>
<path d="M0 0 C7.16306438 5.22389225 10.43111882 11.87929132 11.93359375 20.484375 C12.61559189 28.07531079 10.37597755 34.35113757 5.9375 40.46875 C0.43366485 46.76561086 -5.72820728 49.41284226 -13.95703125 50.42578125 C-21.69081981 50.74629923 -27.85669001 48.34940188 -33.87890625 43.546875 C-39.25174615 38.56301898 -42.38868424 33.20398412 -43.16015625 25.875 C-43.4464008 17.23995617 -41.73853423 11.52250445 -36.31640625 4.796875 C-26.90031025 -5.0977159 -11.8367662 -6.91935758 0 0 Z M-24.87890625 15.546875 C-27.70931446 19.79248731 -27.64312668 23.56352094 -26.87890625 28.546875 C-24.41899876 32.12492226 -22.44994553 33.29307977 -18.50390625 35.046875 C-13.90081475 35.68178417 -11.83915325 34.93796753 -7.87890625 32.546875 C-5.02144531 29.32307292 -3.98839886 27.31332327 -3.37890625 23.046875 C-3.97903949 18.84594235 -5.1196232 16.75360936 -7.87890625 13.546875 C-14.27995926 9.8410022 -19.28840058 11.09988185 -24.87890625 15.546875 Z " fill="#16366F" transform="translate(358.87890625,538.453125)"/>
<path d="M0 0 C6.07147363 4.47771181 10.71886916 10.10116954 12.1875 17.61328125 C13.22433484 26.02445823 12.16933096 32.65797136 7.1875 39.61328125 C1.48956064 45.93108013 -5.08656122 49.84185205 -13.71875 50.60546875 C-21.71910142 50.63532081 -28.5947839 47.53256088 -34.8125 42.61328125 C-40.21078537 36.8922118 -42.46254633 30.41386134 -42.8125 22.61328125 C-42.17294982 12.95763339 -37.00769528 6.27022985 -29.97265625 0.05859375 C-21.28694824 -5.75282029 -8.80272966 -5.13975169 0 0 Z M-21.8125 14.61328125 C-22.8025 14.94328125 -23.7925 15.27328125 -24.8125 15.61328125 C-27.34297282 19.07603353 -27.24261722 22.45548148 -26.8125 26.61328125 C-24.78583762 30.31718146 -23.33205484 32.26691136 -19.8125 34.61328125 C-15.62635326 35.21690166 -11.87813786 35.03026998 -7.9375 33.48828125 C-4.73867358 30.66578735 -3.00966694 27.95177286 -2.64453125 23.62109375 C-2.85449893 19.49950592 -3.592588 17.86537549 -6.375 14.67578125 C-11.36990542 11.12518583 -17.12639199 10.10073279 -21.8125 14.61328125 Z " fill="#16356E" transform="translate(200.8125,538.38671875)"/>
<path d="M0 0 C1.03104355 -0.00262848 1.03104355 -0.00262848 2.08291626 -0.00531006 C4.32890435 -0.00966919 6.57481205 -0.00681104 8.82080078 -0.00341797 C10.39966853 -0.00409287 11.97853617 -0.00506444 13.55740356 -0.00631714 C16.85728958 -0.00778621 20.15714841 -0.00566563 23.45703125 -0.00097656 C27.66184094 0.00471083 31.86658664 0.00144295 36.07139397 -0.00454903 C39.32984895 -0.00818406 42.58828908 -0.00700244 45.84674454 -0.00442123 C47.39590589 -0.0037596 48.94506865 -0.00455334 50.49422836 -0.00690079 C68.30367874 -0.02796479 68.30367874 -0.02796479 74.64111328 1.12939453 C76.31447324 2.80275449 75.76074223 4.84327362 75.76553345 7.07687378 C75.76014053 8.13746506 75.76014053 8.13746506 75.75463867 9.21948242 C75.7547847 9.96089981 75.75493073 10.7023172 75.75508118 11.46620178 C75.75438193 13.92818074 75.74658903 16.39008497 75.73876953 18.85205078 C75.73690539 20.55455992 75.73548147 22.2570696 75.73448181 23.95957947 C75.7306563 28.44932526 75.72082575 32.93903891 75.70977783 37.42877197 C75.69956441 42.00670944 75.69498434 46.58465209 75.68994141 51.16259766 C75.6792035 60.1515441 75.66212669 69.14046665 75.64111328 78.12939453 C73.00111328 78.12939453 70.36111328 78.12939453 67.64111328 78.12939453 C67.64111328 55.35939453 67.64111328 32.58939453 67.64111328 9.12939453 C42.56111328 9.12939453 17.48111328 9.12939453 -8.35888672 9.12939453 C-8.35888672 15.72939453 -8.35888672 22.32939453 -8.35888672 29.12939453 C-11.32888672 29.12939453 -14.29888672 29.12939453 -17.35888672 29.12939453 C-17.41684804 25.02528698 -17.45246985 20.92128437 -17.48388672 16.81689453 C-17.50064453 15.64964844 -17.51740234 14.48240234 -17.53466797 13.27978516 C-17.54111328 12.16152344 -17.54755859 11.04326172 -17.55419922 9.89111328 C-17.56467285 8.85946045 -17.57514648 7.82780762 -17.5859375 6.76489258 C-17.35888672 4.12939453 -17.35888672 4.12939453 -15.35888672 1.12939453 C-10.22009097 0.17678947 -5.22823181 0.0033786 0 0 Z " fill="#11336C" transform="translate(169.35888671875,392.87060546875)"/>
<path d="M0 0 C20.4135118 9.50661912 20.4135118 9.50661912 30 15 C30 15.99 30 16.98 30 18 C26.2308644 19.98096805 22.45884454 21.95629762 18.68408203 23.92651367 C17.40105272 24.59718072 16.1188163 25.26936694 14.83740234 25.94311523 C12.99263857 26.91272536 11.1450681 27.87678985 9.296875 28.83984375 C8.18666992 29.42113037 7.07646484 30.00241699 5.93261719 30.60131836 C3.56232066 31.73180694 1.56176065 32.51762592 -1 33 C-1.85856655 29.5657338 -1.97591583 27.38317487 -1 24 C-1.58136215 24.00444122 -2.1627243 24.00888245 -2.76170349 24.01345825 C-8.84558642 24.05791301 -14.92942273 24.08795788 -21.01342773 24.10986328 C-23.28004838 24.11988328 -25.54665623 24.13350297 -27.81323242 24.15087891 C-31.0825518 24.17530362 -34.35169936 24.18652343 -37.62109375 24.1953125 C-39.12632851 24.21079636 -39.12632851 24.21079636 -40.66197205 24.22659302 C-46.52529873 24.22751534 -52.44480259 24.08672803 -58 22 C-59.52491998 18.95016004 -59.23562548 16.3576631 -59 13 C-57.44972807 10.88021471 -56.54593632 10.10815988 -53.95346069 9.59454346 C-53.17008331 9.58042419 -52.38670593 9.56630493 -51.57958984 9.55175781 C-50.24207169 9.51722504 -50.24207169 9.51722504 -48.87753296 9.48199463 C-47.43381821 9.46770416 -47.43381821 9.46770416 -45.9609375 9.453125 C-44.96550934 9.43280212 -43.97008118 9.41247925 -42.94448853 9.39154053 C-40.83469457 9.35130288 -38.72475551 9.31814787 -36.61474609 9.29150391 C-33.40804598 9.25042335 -30.20235395 9.18773657 -26.99609375 9.12109375 C-24.94273071 9.08465384 -22.88934514 9.04945842 -20.8359375 9.015625 C-19.41044083 8.98918915 -19.41044083 8.98918915 -17.95614624 8.96221924 C-12.21084235 8.89651796 -6.69824167 9.25323848 -1 10 C-1.20625 9.0925 -1.4125 8.185 -1.625 7.25 C-2.02486177 3.78453137 -1.65475295 2.90529144 0 0 Z " fill="#7CAE47" transform="translate(195,416)"/>
<path d="M0 0 C0.7734375 0.495 0.7734375 0.495 1.5625 1 C1.5625 0.34 1.5625 -0.32 1.5625 -1 C3.8725 -1 6.1825 -1 8.5625 -1 C8.8925 8.24 9.2225 17.48 9.5625 27 C8.9025 27 8.2425 27 7.5625 27 C5.74867475 29.1648882 4.026847 31.37889892 2.3359375 33.640625 C-0.32934932 35.68362018 -2.56438689 35.43374221 -5.875 35.4375 C-7.00808594 35.45683594 -8.14117188 35.47617187 -9.30859375 35.49609375 C-13.02144111 34.90741508 -14.23463337 34.0009275 -16.4375 31 C-16.1875 28.25 -16.1875 28.25 -15.4375 26 C-14.4475 25.67 -13.4575 25.34 -12.4375 25 C-11.7775 25.33 -11.1175 25.66 -10.4375 26 C-10.1075 26 -9.7775 26 -9.4375 26 C-10.92711975 24.51038025 -12.42914514 23.03314599 -13.9375 21.5625 C-17.13324621 18.28686014 -18.73382002 16.24307073 -18.8125 11.6875 C-18.7004904 7.10257366 -17.56483088 4.46542071 -14.4375 1 C-9.97260603 -1.65480182 -4.81571087 -1.97567625 0 0 Z M-10.4375 7 C-11.58899016 11.59079703 -11.58899016 11.59079703 -10.375 15.9375 C-7.52470774 17.50056349 -5.63669131 17.45702733 -2.4375 17 C0.10581238 15.45714369 0.10581238 15.45714369 1.5625 13 C1.57703953 10.32024404 1.57703953 10.32024404 0.5625 8 C-1.59561388 6.68377223 -1.59561388 6.68377223 -4.9375 7.5 C-8.4375 8 -8.4375 8 -10.4375 7 Z " fill="#2C3235" transform="translate(639.4375,592)"/>
<path d="M0 0 C2.64 0 5.28 0 8 0 C8 4.62 8 9.24 8 14 C12.29 14 16.58 14 21 14 C21.96003573 11.1198928 22.07845802 9.41400117 22 6.4375 C21.88923557 2.22152886 21.88923557 2.22152886 23 0 C25.31 0 27.62 0 30 0 C30 11.22 30 22.44 30 34 C27.36 33.67 24.72 33.34 22 33 C21.34 29.7 20.68 26.4 20 23 C17.69 22.67 15.38 22.34 13 22 C13 21.67 13 21.34 13 21 C11.35 20.67 9.7 20.34 8 20 C8 24.29 8 28.58 8 33 C5.36 33 2.72 33 0 33 C0 22.11 0 11.22 0 0 Z " fill="#2F3336" transform="translate(466,583)"/>
<path d="M0 0 C5.97813 0.96421452 11.9499299 2.6332866 17 6 C16.75 7.875 16.75 7.875 16 10 C13.9375 11.25 13.9375 11.25 12 12 C11.01 11.34 10.02 10.68 9 10 C6.48415109 9.75849227 6.48415109 9.75849227 3.8125 9.875 C2.46091797 9.90207031 2.46091797 9.90207031 1.08203125 9.9296875 C0.05142578 9.96449219 0.05142578 9.96449219 -1 10 C-3.65225774 14.81934639 -4 19.51152725 -4 25 C0.79771398 27.92543535 3.54277389 28.28988981 9 27 C11.81862203 26.02450239 11.81862203 26.02450239 14 25 C15.5625 26.8125 15.5625 26.8125 17 29 C16 32 16 32 14 33.625 C8.45546321 36.16624603 3.21535607 36.61258463 -2.6875 35 C-7.40897368 33.21394341 -10.31564338 30.21827469 -13 26 C-14.74103011 20.77690967 -14.70074097 15.9522819 -12.625 10.875 C-10.20730764 6.40138677 -6.43454386 4.45589248 -2.046875 2.12890625 C-1.37140625 1.75636719 -0.6959375 1.38382813 0 1 C0 0.67 0 0.34 0 0 Z " fill="#2C3034" transform="translate(731,581)"/>
<path d="M0 0 C0.33 -0.33 0.66 -0.66 1 -1 C3.5 -1.125 3.5 -1.125 6 -1 C7 0 7 0 7.11352539 2.31665039 C7.10828857 3.31688232 7.10305176 4.31711426 7.09765625 5.34765625 C7.09443359 6.42724609 7.09121094 7.50683594 7.08789062 8.61914062 C7.07951172 9.75544922 7.07113281 10.89175781 7.0625 12.0625 C7.05798828 13.20267578 7.05347656 14.34285156 7.04882812 15.51757812 C7.03699747 18.34510351 7.0205141 21.1725264 7 24 C6.39889404 23.99202393 5.79778809 23.98404785 5.1784668 23.97583008 C3.98217651 23.96652466 3.98217651 23.96652466 2.76171875 23.95703125 C1.97498779 23.94905518 1.18825684 23.9410791 0.37768555 23.93286133 C-1.88484006 23.99674823 -3.96266798 24.293155 -6.1875 24.6875 C-10.63261284 25.05185351 -12.37744797 24.55225257 -16 22 C-18.86985359 18.7525341 -20.25126393 16.22902681 -20.4375 11.9375 C-19.85902191 6.73119718 -18.02131048 3.35109206 -14 0 C-9.22748555 -1.59083815 -4.80764007 -1.29436463 0 0 Z M-12 8 C-12.66689633 10.93794868 -12.39077597 12.92263924 -12 16 C-8.52957297 18.31361802 -7.08165827 18.51020728 -3 18 C-0.90235835 16.48105194 -0.90235835 16.48105194 0 14 C0.16448881 10.90351124 0.16448881 10.90351124 -1 8 C-5.63219393 4.52585455 -7.42719215 4.24795254 -12 8 Z " fill="#2F3337" transform="translate(521,592)"/>
<path d="M0 0 C3.33333333 0 6.66666667 0 10 0 C11.27875 -0.061875 12.5575 -0.12375 13.875 -0.1875 C17.70456013 -0.18046037 19.97422595 0.50818607 23 3 C24.75175882 5.87456372 25.24311284 7.98210146 25.1953125 11.328125 C25.18886719 12.12734375 25.18242188 12.9265625 25.17578125 13.75 C25.15902344 14.575 25.14226563 15.4 25.125 16.25 C25.11597656 17.09046875 25.10695313 17.9309375 25.09765625 18.796875 C25.07415817 20.86470604 25.03828908 22.93238995 25 25 C22.69 25 20.38 25 18 25 C17.95101562 23.94039062 17.90203125 22.88078125 17.8515625 21.7890625 C17.77653291 20.40101503 17.70098515 19.01299549 17.625 17.625 C17.5940625 16.92632813 17.563125 16.22765625 17.53125 15.5078125 C17.40500502 11.29814173 17.40500502 11.29814173 15 8 C12.11785113 8.88214887 12.11785113 8.88214887 10 10 C9.60661452 12.98037463 9.60661452 12.98037463 9.5 16.4375 C9.22158439 22.77841561 9.22158439 22.77841561 7 25 C4.69 25 2.38 25 0 25 C0 16.75 0 8.5 0 0 Z " fill="#2A2E32" transform="translate(592,591)"/>
<path d="M0 0 C2.31 0 4.62 0 7 0 C7.33 5.94 7.66 11.88 8 18 C13.47825081 18.4472136 13.47825081 18.4472136 16 17 C17.13965577 13.5810327 17.06378508 10.97088393 17 7.375 C16.96247826 5.25033129 16.95317941 3.12448413 17 1 C17.33 0.67 17.66 0.34 18 0 C20.31 0 22.62 0 25 0 C25 8.25 25 16.5 25 25 C9.57869634 26.43084261 9.57869634 26.43084261 5 25 C2.11125141 22.35656242 0.28685428 20.62626458 -0.40087891 16.72729492 C-0.49118636 14.17573102 -0.43730788 11.67492091 -0.3125 9.125 C-0.28994141 8.24585938 -0.26738281 7.36671875 -0.24414062 6.4609375 C-0.18559748 4.30654993 -0.09592783 2.1530469 0 0 Z " fill="#2D3236" transform="translate(534,591)"/>
<path d="M0 0 C1.7325 0.1546875 1.7325 0.1546875 3.5 0.3125 C5.73413013 3.66369519 5.73847762 4.7302755 5.6953125 8.63671875 C5.68564453 10.17875977 5.68564453 10.17875977 5.67578125 11.75195312 C5.65902344 12.82380859 5.64226563 13.89566406 5.625 15 C5.61597656 16.08345703 5.60695313 17.16691406 5.59765625 18.28320312 C5.57407452 20.95972948 5.53820336 23.63614241 5.5 26.3125 C12.43 26.8075 12.43 26.8075 19.5 27.3125 C19.5 29.2925 19.5 31.2725 19.5 33.3125 C12.9 33.3125 6.3 33.3125 -0.5 33.3125 C-0.5 33.9725 -0.5 34.6325 -0.5 35.3125 C-2.5 35.3125 -2.5 35.3125 -4.10229492 34.23657227 C-6.18377936 31.37121351 -5.87179398 29.03527723 -5.86328125 25.52734375 C-5.86377975 24.87045059 -5.86427826 24.21355743 -5.86479187 23.53675842 C-5.86245488 22.15069548 -5.85274825 20.76462801 -5.83618164 19.37866211 C-5.81254461 17.25401016 -5.81562808 15.13060978 -5.82226562 13.00585938 C-5.77056438 0.51522896 -5.77056438 0.51522896 0 0 Z " fill="#2C3033" transform="translate(669.5,582.6875)"/>
<path d="M0 0 C2.31 0 4.62 0 7 0 C7 8.91 7 17.82 7 27 C12.22100062 26.63163865 12.22100062 26.63163865 17.44116211 26.25170898 C19.29190666 26.12844889 21.14620522 26.062397 23 26 C24 27 24 27 24 33 C16.08 33 8.16 33 0 33 C0 22.11 0 11.22 0 0 Z " fill="#373C3F" transform="translate(693,583)"/>
<path d="M0 0 C-0.99 1.485 -0.99 1.485 -2 3 C-2.27670494 5.90930342 -2.27670494 5.90930342 -2.1953125 9.19921875 C-2.18886719 10.40771484 -2.18242187 11.61621094 -2.17578125 12.86132812 C-2.15902344 14.12396484 -2.14226562 15.38660156 -2.125 16.6875 C-2.11597656 17.96173828 -2.10695312 19.23597656 -2.09765625 20.54882812 C-2.07405641 23.69940627 -2.04113194 26.84960983 -2 30 C-8.15234375 30.09765625 -8.15234375 30.09765625 -10 30 C-11 29 -11 29 -11.11352539 26.49975586 C-11.10828857 25.41573486 -11.10305176 24.33171387 -11.09765625 23.21484375 C-11.09443359 22.04501953 -11.09121094 20.87519531 -11.08789062 19.66992188 C-11.07951172 18.43822266 -11.07113281 17.20652344 -11.0625 15.9375 C-11.05798828 14.70193359 -11.05347656 13.46636719 -11.04882812 12.19335938 C-11.03699608 9.12885883 -11.02051173 6.06445279 -11 3 C-7.08282824 0.9329052 -4.47750869 -0.3950743 0 0 Z " fill="#13356F" transform="translate(163,441)"/>
<path d="M0 0 C2 2 2 2 2.22705078 5.43994141 C2.22673369 6.91051979 2.21540987 8.38112142 2.1953125 9.8515625 C2.1924826 10.62559418 2.18965271 11.39962585 2.18673706 12.19711304 C2.17552754 14.67323157 2.15042203 17.1489905 2.125 19.625 C2.11497118 21.30207812 2.10584516 22.97916189 2.09765625 24.65625 C2.07558574 28.77097223 2.04105102 32.88542511 2 37 C-0.31 36.67 -2.62 36.34 -5 36 C-5 24.78 -5 13.56 -5 2 C-3.35 1.34 -1.7 0.68 0 0 Z " fill="#2D3135" transform="translate(570,580)"/>
<path d="M0 0 C4.64474974 -0.32405231 7.29105728 0.11526677 11 3 C12.76053336 5.86896089 13.24308657 7.98394036 13.1953125 11.328125 C13.18886719 12.12734375 13.18242188 12.9265625 13.17578125 13.75 C13.15902344 14.575 13.14226563 15.4 13.125 16.25 C13.11597656 17.09046875 13.10695313 17.9309375 13.09765625 18.796875 C13.07415817 20.86470604 13.03828908 22.93238995 13 25 C10.69 25 8.38 25 6 25 C5.96261719 23.95199219 5.92523437 22.90398438 5.88671875 21.82421875 C5.82105485 20.44527695 5.75460765 19.06637229 5.6875 17.6875 C5.66494141 16.99720703 5.64238281 16.30691406 5.61914062 15.59570312 C5.4646374 12.68823336 5.31997358 10.49011058 3.70703125 8.01953125 C1.75903179 6.65815918 1.75903179 6.65815918 -2 7 C-2.33 5.68 -2.66 4.36 -3 3 C-2.34 3 -1.68 3 -1 3 C-0.67 2.01 -0.34 1.02 0 0 Z " fill="#32363A" transform="translate(604,591)"/>
<path d="M0 0 C2.31 0 4.62 0 7 0 C8.02820502 3.08461506 8.04582849 4.89685239 7.87890625 8.10546875 C7.83056641 9.08837891 7.78222656 10.07128906 7.73242188 11.08398438 C7.67634766 12.10814453 7.62027344 13.13230469 7.5625 14.1875 C7.51029297 15.22326172 7.45808594 16.25902344 7.40429688 17.32617188 C7.27461607 19.88442049 7.13965022 22.44227938 7 25 C4.69 25 2.38 25 0 25 C0 16.75 0 8.5 0 0 Z " fill="#2F3236" transform="translate(578,591)"/>
<path d="M0 0 C0.99 0.33 1.98 0.66 3 1 C2.67 22.78 2.34 44.56 2 67 C5.3 67 8.6 67 12 67 C11.01 67.99 11.01 67.99 10 69 C6.7 69 3.4 69 0 69 C0 46.23 0 23.46 0 0 Z " fill="#102F68" transform="translate(607,490)"/>
<path d="M0 0 C0.33 0 0.66 0 1 0 C1 8.91 1 17.82 1 27 C6.22100062 26.63163865 6.22100062 26.63163865 11.44116211 26.25170898 C13.29190666 26.12844889 15.14620522 26.062397 17 26 C18 27 18 27 18 33 C10.08 33 2.16 33 -6 33 C-6 32.34 -6 31.68 -6 31 C0.93 31 7.86 31 15 31 C15 30.34 15 29.68 15 29 C13.87851562 29.01740234 13.87851562 29.01740234 12.734375 29.03515625 C11.74953125 29.04417969 10.7646875 29.05320312 9.75 29.0625 C8.28820312 29.07990234 8.28820312 29.07990234 6.796875 29.09765625 C4.31862574 29.0111252 2.32383005 28.84745178 0 28 C-1.3241409 25.35171821 -1.12957042 23.33319888 -1.1328125 20.37109375 C-1.13410156 19.25412109 -1.13539063 18.13714844 -1.13671875 16.98632812 C-1.13285156 15.81521484 -1.12898437 14.64410156 -1.125 13.4375 C-1.12886719 12.26251953 -1.13273438 11.08753906 -1.13671875 9.87695312 C-1.13542969 8.76126953 -1.13414062 7.64558594 -1.1328125 6.49609375 C-1.13168457 5.46669678 -1.13055664 4.4372998 -1.12939453 3.37670898 C-1 1 -1 1 0 0 Z " fill="#2F3336" transform="translate(699,583)"/>
<path d="M0 0 C0 13.53 0 27.06 0 41 C-0.33 40.34 -0.66 39.68 -1 39 C-1.66 39 -2.32 39 -3 39 C-3 26.46 -3 13.92 -3 1 C-1 0 -1 0 0 0 Z " fill="#123065" transform="translate(729,516)"/>
<path d="M0 0 C0.33 0.99 0.66 1.98 1 3 C1.66 3 2.32 3 3 3 C3.52775467 42.04572594 3.52775467 42.04572594 -0.57421875 46.83984375 C-1.04472656 47.22269531 -1.51523437 47.60554688 -2 48 C-3.36596865 45.2680627 -2.36383318 43.84785347 -1.50714111 41.05831909 C-0.59166013 37.34268268 -0.63980872 33.59514752 -0.5859375 29.78515625 C-0.56657135 28.92941513 -0.5472052 28.07367401 -0.5272522 27.19200134 C-0.46789086 24.48226617 -0.42124634 21.7724875 -0.375 19.0625 C-0.33678015 17.21547716 -0.29772613 15.36847139 -0.2578125 13.52148438 C-0.16222552 9.01446291 -0.07803576 4.50735812 0 0 Z " fill="#123368" transform="translate(648,411)"/>
<path d="M0 0 C0.66 0.33 1.32 0.66 2 1 C2 19.48 2 37.96 2 57 C0.68 56.67 -0.64 56.34 -2 56 C-1.505 55.505 -1.505 55.505 -1 55 C-0.87692689 53.28225833 -0.82213442 51.55957261 -0.79467773 49.83764648 C-0.77473251 48.73658066 -0.75478729 47.63551483 -0.73423767 46.50108337 C-0.70916893 44.70423851 -0.70916893 44.70423851 -0.68359375 42.87109375 C-0.66281265 41.65172623 -0.64203156 40.4323587 -0.62062073 39.17604065 C-0.55499572 35.26325355 -0.49618028 31.35039683 -0.4375 27.4375 C-0.39432709 24.79231038 -0.35071322 22.14712791 -0.30664062 19.50195312 C-0.1993012 13.00137664 -0.09755933 6.50073021 0 0 Z " fill="#0B285D" transform="translate(562,416)"/>
<path d="M0 0 C1.12591553 0.00523682 2.25183105 0.01047363 3.41186523 0.01586914 C4.62680664 0.0190918 5.84174805 0.02231445 7.09350586 0.02563477 C8.37290039 0.03401367 9.65229492 0.04239258 10.97045898 0.05102539 C12.2537207 0.05553711 13.53698242 0.06004883 14.85913086 0.06469727 C18.04211921 0.07652994 21.22501661 0.09301471 24.40795898 0.11352539 C24.40795898 0.77352539 24.40795898 1.43352539 24.40795898 2.11352539 C15.82795898 2.11352539 7.24795898 2.11352539 -1.59204102 2.11352539 C-1.59204102 10.69352539 -1.59204102 19.27352539 -1.59204102 28.11352539 C-2.91204102 28.11352539 -4.23204102 28.11352539 -5.59204102 28.11352539 C-5.09704102 26.62852539 -5.09704102 26.62852539 -4.59204102 25.11352539 C-4.45464928 23.28033716 -4.36739303 21.44317086 -4.31079102 19.60571289 C-4.2734082 18.53708008 -4.23602539 17.46844727 -4.19750977 16.36743164 C-4.12695364 14.10702257 -4.05664282 11.84660582 -3.98657227 9.58618164 C-3.94918945 8.52012695 -3.91180664 7.45407227 -3.87329102 6.35571289 C-3.84299805 5.3745752 -3.81270508 4.3934375 -3.78149414 3.38256836 C-3.51016501 0.13291249 -3.28778124 0.1439972 0 0 Z " fill="#0E2C64" transform="translate(680.592041015625,444.886474609375)"/>
<path d="M0 0 C1.98 0 3.96 0 6 0 C5.67 0.99 5.34 1.98 5 3 C-23.38 3 -51.76 3 -81 3 C-81 2.67 -81 2.34 -81 2 C-40.905 1.505 -40.905 1.505 0 1 C0 0.67 0 0.34 0 0 Z " fill="#0F2E67" transform="translate(233,475)"/>
<path d="M0 0 C0.99 0 1.98 0 3 0 C3 9.9 3 19.8 3 30 C2.01 30 1.02 30 0 30 C0 20.1 0 10.2 0 0 Z " fill="#3C4144" transform="translate(567,584)"/>
<path d="M0 0 C1.98 0 3.96 0 6 0 C6 11.22 6 22.44 6 34 C2.04 33.505 2.04 33.505 -2 33 C-1.67 32.34 -1.34 31.68 -1 31 C0.65 31 2.3 31 4 31 C4 21.43 4 11.86 4 2 C2.68 1.34 1.36 0.68 0 0 Z " fill="#2A2F32" transform="translate(490,583)"/>
<path d="M0 0 C0.99 0.33 1.98 0.66 3 1 C2.67 1.66 2.34 2.32 2 3 C1.84323225 5.69655446 1.74163685 8.37129977 1.68359375 11.0703125 C1.66281265 11.86654022 1.64203156 12.66276794 1.62062073 13.48312378 C1.55515851 16.03032685 1.49625585 18.57763425 1.4375 21.125 C1.3943116 22.85027127 1.35069721 24.57553193 1.30664062 26.30078125 C1.19948055 30.53374685 1.09820377 34.76681753 1 39 C0.34 39 -0.32 39 -1 39 C-1.02467917 33.76725612 -1.04285003 28.53454597 -1.05493164 23.30175781 C-1.05996711 21.52082733 -1.06679581 19.739901 -1.07543945 17.95898438 C-1.08753942 15.40233335 -1.09323609 12.84573688 -1.09765625 10.2890625 C-1.10281754 9.49005524 -1.10797882 8.69104797 -1.11329651 7.86782837 C-1.11387171 2.22774341 -1.11387171 2.22774341 0 0 Z " fill="#133267" transform="translate(255,433)"/>
<path d="M0 0 C3.7264769 3.41376555 6.38899655 7.27118034 9.1875 11.4375 C10.15601649 12.86343988 11.12477037 14.28921855 12.09375 15.71484375 C12.57714844 16.42882324 13.06054688 17.14280273 13.55859375 17.87841797 C15.74739775 21.1000824 17.96640068 24.30055395 20.1875 27.5 C20.92355469 28.5621875 21.65960937 29.624375 22.41796875 30.71875 C22.94003906 31.4715625 23.46210937 32.224375 24 33 C23.34 33.66 22.68 34.32 22 35 C20.98292969 33.51113281 20.98292969 33.51113281 19.9453125 31.9921875 C19.00537627 30.61967664 18.06525842 29.24729015 17.125 27.875 C16.63338379 27.15594482 16.14176758 26.43688965 15.63525391 25.69604492 C13.16285403 22.09346161 10.66634925 18.51660695 8.078125 14.99609375 C7.39532471 14.06337646 7.39532471 14.06337646 6.69873047 13.11181641 C5.83525872 11.9381191 4.96478265 10.76953327 4.08642578 9.60693359 C1.76348636 6.44189283 0.42247822 3.92613382 0 0 Z " fill="#0E2E67" transform="translate(803,520)"/>
<path d="M0 0 C-3.58064744 2.38709829 -5.80339484 2.41821865 -10.0625 2.8125 C-19.44793765 3.86272946 -26.41048249 7.60744809 -34 13 C-31.60653836 7.19804849 -26.31199495 4.65599748 -20.8984375 1.94921875 C-14.13209232 -0.72437457 -7.16621104 -0.27523143 0 0 Z " fill="#123068" transform="translate(194,526)"/>
<path d="M0 0 C2.6875 0.875 2.6875 0.875 5 2 C5.04241723 4.33294775 5.04092937 6.66702567 5 9 C4 10 4 10 0.9375 10.0625 C-0.031875 10.041875 -1.00125 10.02125 -2 10 C-2.33 7.36 -2.66 4.72 -3 2 C-2.01 1.34 -1.02 0.68 0 0 Z " fill="#34373A" transform="translate(581,580)"/>
<path d="M0 0 C0.33 0 0.66 0 1 0 C1.08685287 3.29150125 1.14033895 6.5827096 1.1875 9.875 C1.21263672 10.81214844 1.23777344 11.74929688 1.26367188 12.71484375 C1.27333984 13.61074219 1.28300781 14.50664062 1.29296875 15.4296875 C1.3086792 16.25710449 1.32438965 17.08452148 1.34057617 17.93701172 C1.22818604 18.61779785 1.1157959 19.29858398 1 20 C0.01 20.66 -0.98 21.32 -2 22 C-2.05807043 18.89591193 -2.09361914 15.7919636 -2.125 12.6875 C-2.14175781 11.80642578 -2.15851562 10.92535156 -2.17578125 10.01757812 C-2.18222656 9.17001953 -2.18867187 8.32246094 -2.1953125 7.44921875 C-2.20578613 6.66893311 -2.21625977 5.88864746 -2.22705078 5.0847168 C-2 3 -2 3 0 0 Z " fill="#123166" transform="translate(728,492)"/>
<path d="M0 0 C2.625 -0.1875 2.625 -0.1875 5 0 C4.01 1.485 4.01 1.485 3 3 C2.79439552 6.32444964 2.79439552 6.32444964 2.9375 10.0625 C3.04301592 16.11281215 2.79075344 21.99874622 2 28 C1.67 28 1.34 28 1 28 C1 20.08 1 12.16 1 4 C0.01 3.67 -0.98 3.34 -2 3 C-1.34 2.01 -0.68 1.02 0 0 Z " fill="#173C70" transform="translate(158,441)"/>
<path d="M0 0 C0.33 0 0.66 0 1 0 C1 3.3 1 6.6 1 10 C-0.98 9.9690625 -0.98 9.9690625 -3 9.9375 C-7.41979822 9.93049557 -11.62914354 10.36423906 -16 11 C-16.33 10.01 -16.66 9.02 -17 8 C-11.47032059 7.28966569 -6.50016964 6.69732824 -1 8 C-0.67 5.36 -0.34 2.72 0 0 Z " fill="#272C2F" transform="translate(527,606)"/>
<path d="M0 0 C0.33 0 0.66 0 1 0 C1.33 3.3 1.66 6.6 2 10 C2.33 10 2.66 10 3 10 C3.08097324 12.27024968 3.13917704 14.54132075 3.1875 16.8125 C3.22230469 18.07707031 3.25710938 19.34164063 3.29296875 20.64453125 C3 24 3 24 0 27 C0 18.09 0 9.18 0 0 Z " fill="#0D2C5F" transform="translate(716,423)"/>
<path d="M0 0 C0.33 0.66 0.66 1.32 1 2 C2.32 2 3.64 2 5 2 C4.67 2.99 4.34 3.98 4 5 C4 4.34 4 3.68 4 3 C3.34 3 2.68 3 2 3 C2.33 3.66 2.66 4.32 3 5 C3.07065617 7.04055005 3.08421976 9.08334257 3.0625 11.125 C3.05347656 12.22070312 3.04445313 13.31640625 3.03515625 14.4453125 C3.02355469 15.28835938 3.01195312 16.13140625 3 17 C2.01 16.67 1.02 16.34 0 16 C0 10.72 0 5.44 0 0 Z " fill="#0B2153" transform="translate(623,505)"/>
<path d="M0 0 C0.33 0 0.66 0 1 0 C2.32052882 7.26290851 2.20004336 13.69993496 -2 20 C-2.66 20 -3.32 20 -4 20 C-3.690625 19.0925 -3.38125 18.185 -3.0625 17.25 C-1.74068977 12.72605794 -1.5309409 8.1620075 -1.24609375 3.4765625 C-1 1 -1 1 0 0 Z " fill="#0F3067" transform="translate(660,509)"/>
<path d="M0 0 C0.99 0.33 1.98 0.66 3 1 C2.8125 2.875 2.8125 2.875 2 5 C-1.89468689 7.29099229 -5.56082197 7.3350323 -10 7 C-10.66 6.34 -11.32 5.68 -12 5 C-10.68 4.67 -9.36 4.34 -8 4 C-8 4.66 -8 5.32 -8 6 C-7.05125 5.195625 -6.1025 4.39125 -5.125 3.5625 C-3.42067644 2.11753003 -2.00519014 1.00259507 0 0 Z " fill="#1A1C1D" transform="translate(640,611)"/>
<path d="M0 0 C0.33 0.99 0.66 1.98 1 3 C1.66 3 2.32 3 3 3 C3 12.24 3 21.48 3 31 C2.67 31 2.34 31 2 31 C1.66180134 27.14624423 1.33031669 23.29193872 1 19.4375 C0.90460937 18.35146484 0.80921875 17.26542969 0.7109375 16.14648438 C0.25113031 10.7437499 -0.12447531 5.42245588 0 0 Z " fill="#0A1D3D" transform="translate(648,411)"/>
<path d="M0 0 C0.66 0.33 1.32 0.66 2 1 C2 4.63 2 8.26 2 12 C-0.97 12 -3.94 12 -7 12 C-6.67 10.35 -6.34 8.7 -6 7 C-5.67 7.99 -5.34 8.98 -5 10 C-3.35 10 -1.7 10 0 10 C0 6.7 0 3.4 0 0 Z " fill="#214665" transform="translate(159,410)"/>
<path d="M0 0 C2.86724686 0.57344937 3.8614515 0.8614515 6 3 C4.68 3 3.36 3 2 3 C2 10.92 2 18.84 2 27 C1.67 27 1.34 27 1 27 C1 19.41 1 11.82 1 4 C0.34 4 -0.32 4 -1 4 C-0.67 2.68 -0.34 1.36 0 0 Z " fill="#0F2D63" transform="translate(153,443)"/>
<path d="M0 0 C5.94 0.33 11.88 0.66 18 1 C14.89914429 3.06723714 14.27068319 3.24497423 10.76953125 3.1953125 C9.56586914 3.18564453 9.56586914 3.18564453 8.33789062 3.17578125 C7.50451172 3.15902344 6.67113281 3.14226562 5.8125 3.125 C4.96751953 3.11597656 4.12253906 3.10695313 3.25195312 3.09765625 C1.16784757 3.07410703 -0.91611217 3.03823647 -3 3 C-2.01 2.67 -1.02 2.34 0 2 C0 1.34 0 0.68 0 0 Z " fill="#0D2B65" transform="translate(292,431)"/>
<path d="M0 0 C0.33 0 0.66 0 1 0 C1.04898438 0.71285156 1.09796875 1.42570313 1.1484375 2.16015625 C1.58128523 7.70508491 2.24028816 12.72086449 4 18 C3.34 18.33 2.68 18.66 2 19 C-0.44998551 13.88698676 -1.72021266 9.68900924 -2 4 C-1.0625 1.5 -1.0625 1.5 0 0 Z " fill="#102B67" transform="translate(160,557)"/>
<path d="M0 0 C0.99 0.99 1.98 1.98 3 3 C2 6 2 6 -0.0625 7.625 C-3.80036201 9.37463754 -6.89620686 9.65222092 -11 10 C-11 9.34 -11 8.68 -11 8 C-7.37 6.68 -3.74 5.36 0 4 C0 2.68 0 1.36 0 0 Z " fill="#22272B" transform="translate(745,607)"/>
<path d="M0 0 C0.66 0 1.32 0 2 0 C2.33 2.64 2.66 5.28 3 8 C4.98 7.67 6.96 7.34 9 7 C6.75 9.0625 6.75 9.0625 4 11 C1.6875 10.75 1.6875 10.75 0 10 C0.33 7.36 0.66 4.72 1 2 C0.34 1.67 -0.32 1.34 -1 1 C-0.67 0.67 -0.34 0.34 0 0 Z " fill="#6FA640" transform="translate(193,438)"/>
<path d="M0 0 C1.32 0.66 2.64 1.32 4 2 C3.42365861 6.75481646 1.44931479 9.97048212 -1 14 C-1.66 14 -2.32 14 -3 14 C-2.690625 13.113125 -2.38125 12.22625 -2.0625 11.3125 C-0.82138578 7.44314389 0 4.06495649 0 0 Z " fill="#102D63" transform="translate(517,404)"/>
<path d="M0 0 C0.33 0 0.66 0 1 0 C1 11.88 1 23.76 1 36 C0.67 36 0.34 36 0 36 C0 24.12 0 12.24 0 0 Z " fill="#00004A" transform="translate(246,397)"/>
<path d="M0 0 C3 3 3 3 3.29296875 5.91796875 C3.25816406 6.99691406 3.22335937 8.07585937 3.1875 9.1875 C3.16042969 10.27417969 3.13335937 11.36085938 3.10546875 12.48046875 C3.07066406 13.31191406 3.03585937 14.14335937 3 15 C2.01 15 1.02 15 0 15 C0 10.05 0 5.1 0 0 Z " fill="#103065" transform="translate(482,491)"/>
<path d="M0 0 C0.66 0 1.32 0 2 0 C2.43957031 0.48082031 2.87914062 0.96164062 3.33203125 1.45703125 C5.46686683 3.43187915 6.82235679 3.47988093 9.6875 3.6875 C10.49574219 3.75324219 11.30398438 3.81898438 12.13671875 3.88671875 C12.75160156 3.92410156 13.36648438 3.96148438 14 4 C14 4.66 14 5.32 14 6 C9.60309316 7.02253647 7.01127186 7.16825506 3 5 C1.1875 3.5 1.1875 3.5 0 2 C0 1.34 0 0.68 0 0 Z " fill="#24292E" transform="translate(535,610)"/>
<path d="M0 0 C0.33 0 0.66 0 1 0 C2.45184478 4.53701494 3.23509196 8.18061476 3 13 C2.67 13 2.34 13 2 13 C1.67 14.98 1.34 16.96 1 19 C0.34 18.67 -0.32 18.34 -1 18 C-0.505 9.09 -0.505 9.09 0 0 Z " fill="#0D3068" transform="translate(623,539)"/>
<path d="M0 0 C1.32 0 2.64 0 4 0 C4 0.66 4 1.32 4 2 C8.29 2 12.58 2 17 2 C17 2.33 17 2.66 17 3 C8.75 3 0.5 3 -8 3 C-8 2.67 -8 2.34 -8 2 C-5.36 2 -2.72 2 0 2 C0 1.34 0 0.68 0 0 Z " fill="#68B538" transform="translate(177,425)"/>
<path d="M0 0 C0.598125 0.226875 1.19625 0.45375 1.8125 0.6875 C0.8534375 1.244375 0.8534375 1.244375 -0.125 1.8125 C-2.82608072 4.26802793 -2.87157005 6.13328805 -3.1875 9.6875 C-4.1775 9.6875 -5.1675 9.6875 -6.1875 9.6875 C-5.58414218 3.29190714 -5.58414218 3.29190714 -3.875 0.6875 C-2.1875 -0.3125 -2.1875 -0.3125 0 0 Z " fill="#272D30" transform="translate(512.1875,596.3125)"/>
<path d="M0 0 C0.66 0.33 1.32 0.66 2 1 C2.4140625 3.06640625 2.4140625 3.06640625 2.625 5.5625 C2.69976563 6.38878906 2.77453125 7.21507812 2.8515625 8.06640625 C2.92503906 9.02353516 2.92503906 9.02353516 3 10 C2.34 10 1.68 10 1 10 C0.34 10.66 -0.32 11.32 -1 12 C-1.02687279 10.18757948 -1.04633715 8.37504767 -1.0625 6.5625 C-1.07410156 5.55316406 -1.08570313 4.54382813 -1.09765625 3.50390625 C-1 1 -1 1 0 0 Z " fill="#1C2022" transform="translate(672,597)"/>
<path d="M0 0 C0.33 0 0.66 0 1 0 C1.33 4.62 1.66 9.24 2 14 C1.01 14.33 0.02 14.66 -1 15 C-1.02685412 12.68756208 -1.04632841 10.3750373 -1.0625 8.0625 C-1.07410156 6.77472656 -1.08570313 5.48695313 -1.09765625 4.16015625 C-1 1 -1 1 0 0 Z " fill="#292F31" transform="translate(611,601)"/>
<path d="M0 0 C0.99 0.33 1.98 0.66 3 1 C3.04241723 3.33294775 3.04092937 5.66702567 3 8 C2 9 2 9 -1.0625 9.0625 C-2.031875 9.041875 -3.00125 9.02125 -4 9 C-3.34 8.67 -2.68 8.34 -2 8 C-1.67 7.01 -1.34 6.02 -1 5 C-0.34 5 0.32 5 1 5 C0.67 3.35 0.34 1.7 0 0 Z " fill="#1F2125" transform="translate(583,581)"/>
<path d="M0 0 C1.84765625 0.33984375 1.84765625 0.33984375 4.0625 0.9375 C5.16271484 1.22947266 5.16271484 1.22947266 6.28515625 1.52734375 C7.13400391 1.76130859 7.13400391 1.76130859 8 2 C5 4 5 4 2.875 4.5 C2.25625 4.665 1.6375 4.83 1 5 C0.67 5.66 0.34 6.32 0 7 C-0.66 6.67 -1.32 6.34 -2 6 C-1.125 1.125 -1.125 1.125 0 0 Z " fill="#252B2F" transform="translate(625,617)"/>
<path d="M0 0 C0.33 0.99 0.66 1.98 1 3 C-2.96 3 -6.92 3 -11 3 C-11 2.34 -11 1.68 -11 1 C-7.26513121 0.4254048 -3.78706732 0 0 0 Z " fill="#272B2E" transform="translate(714,609)"/>
<path d="M0 0 C0.99 0.33 1.98 0.66 3 1 C2.38125 1.7425 1.7625 2.485 1.125 3.25 C-0.60437281 5.48801188 -1.86106661 7.43739987 -3 10 C-3.66 10 -4.32 10 -5 10 C-4.49701212 5.59885603 -2.91227269 3.28804981 0 0 Z " fill="#0E2E64" transform="translate(473,406)"/>
<path d="M0 0 C2.0625 0.4375 2.0625 0.4375 4 1 C4 1.66 4 2.32 4 3 C4.66 3.66 5.32 4.32 6 5 C3.36 5.33 0.72 5.66 -2 6 C-1.125 1.125 -1.125 1.125 0 0 Z " fill="#1A2425" transform="translate(632,595)"/>
<path d="M0 0 C4.07763771 2.86536704 6.02677065 5.43041625 8 10 C7.01 10.495 7.01 10.495 6 11 C4.99126984 9.73608512 3.99328178 8.46359117 3 7.1875 C2.443125 6.47980469 1.88625 5.77210938 1.3125 5.04296875 C0 3 0 3 0 0 Z " fill="#133069" transform="translate(367,535)"/>
<path d="M0 0 C0.33 0 0.66 0 1 0 C1 7.92 1 15.84 1 24 C0.67 24 0.34 24 0 24 C0 16.08 0 8.16 0 0 Z " fill="#032A2A" transform="translate(649,592)"/>
<path d="M0 0 C2.08304538 -0.05418326 4.16649768 -0.09287551 6.25 -0.125 C7.99023438 -0.15980469 7.99023438 -0.15980469 9.765625 -0.1953125 C12.82786046 -0.0103949 14.44202751 0.39176977 17 2 C15.0085944 2.38133299 13.00720923 2.71325582 11 3 C10.67 2.67 10.34 2.34 10 2 C8.31816052 1.76712992 6.6287584 1.58735834 4.9375 1.4375 C4.01839844 1.35371094 3.09929687 1.26992188 2.15234375 1.18359375 C1.08693359 1.09271484 1.08693359 1.09271484 0 1 C0 0.67 0 0.34 0 0 Z " fill="#0F2D65" transform="translate(337,526)"/>
<path d="M0 0 C3.39417765 3.12621626 5.6062718 5.56541027 7 10 C6.01 10 5.02 10 4 10 C2.35 7.03 0.7 4.06 -1 1 C-0.67 0.67 -0.34 0.34 0 0 Z " fill="#112E62" transform="translate(713,496)"/>
<path d="M0 0 C0.33 0 0.66 0 1 0 C1 7.92 1 15.84 1 24 C0.67 24 0.34 24 0 24 C0 16.08 0 8.16 0 0 Z " fill="#000000" transform="translate(565,420)"/>
<path d="M0 0 C0.33 0 0.66 0 1 0 C1.125 5.75 1.125 5.75 0 8 C-1.65 8 -3.3 8 -5 8 C-5.33 7.34 -5.66 6.68 -6 6 C-5.38125 5.938125 -4.7625 5.87625 -4.125 5.8125 C-1.72238859 5.171081 -1.72238859 5.171081 -0.75 2.4375 C-0.5025 1.633125 -0.255 0.82875 0 0 Z " fill="#113166" transform="translate(550,551)"/>
<path d="M0 0 C0.33 0 0.66 0 1 0 C1 7.26 1 14.52 1 22 C0.67 22 0.34 22 0 22 C0 14.74 0 7.48 0 0 Z " fill="#000062" transform="translate(803,532)"/>
<path d="M0 0 C0.33 0 0.66 0 1 0 C1 6.93 1 13.86 1 21 C0.67 21 0.34 21 0 21 C0 14.07 0 7.14 0 0 Z " fill="#1B2323" transform="translate(497,584)"/>
<path d="M0 0 C0.33 0 0.66 0 1 0 C0.51171875 6.0546875 0.51171875 6.0546875 0 8 C-0.99 8.66 -1.98 9.32 -3 10 C-2.69201674 8.51988629 -2.378482 7.04092675 -2.0625 5.5625 C-1.88847656 4.73878906 -1.71445312 3.91507813 -1.53515625 3.06640625 C-1 1 -1 1 0 0 Z " fill="#122E64" transform="translate(565,509)"/>
<path d="M0 0 C0.99 0.495 0.99 0.495 2 1 C1.67 7.27 1.34 13.54 1 20 C0.67 20 0.34 20 0 20 C0 13.4 0 6.8 0 0 Z " fill="#000373" transform="translate(680,448)"/>
<path d="M0 0 C2.64752004 2.57784846 4.94432065 4.91648098 7 8 C6.01 8 5.02 8 4 8 C0 3.77142857 0 3.77142857 0 0 Z " fill="#0E2D64" transform="translate(328,446)"/>
<path d="M0 0 C0.99 0 1.98 0 3 0 C2.01 2.97 1.02 5.94 0 9 C-0.66 8.67 -1.32 8.34 -2 8 C-1.34 5.36 -0.68 2.72 0 0 Z " fill="#112D66" transform="translate(544,521)"/>
<path d="M0 0 C0.99 0 1.98 0 3 0 C4.75 2.3125 4.75 2.3125 6 5 C5.67 5.99 5.34 6.98 5 8 C2.74754119 5.31158141 1.11786042 3.35358125 0 0 Z " fill="#102B5D" transform="translate(362,544)"/>
<path d="M0 0 C0.33 0 0.66 0 1 0 C1 6.27 1 12.54 1 19 C0.67 19 0.34 19 0 19 C0 12.73 0 6.46 0 0 Z " fill="#001A4A" transform="translate(847,511)"/>
<path d="M0 0 C0.33 0 0.66 0 1 0 C1 2.97 1 5.94 1 9 C0.01 8.67 -0.98 8.34 -2 8 C-1.125 1.125 -1.125 1.125 0 0 Z " fill="#65C12E" transform="translate(195,416)"/>
<path d="M0 0 C0.33 1.32 0.66 2.64 1 4 C-1.64 3.67 -4.28 3.34 -7 3 C-6.67 2.34 -6.34 1.68 -6 1 C-2.9375 0.375 -2.9375 0.375 0 0 Z " fill="#202528" transform="translate(495,613)"/>
<path d="M0 0 C0.66 1.32 1.32 2.64 2 4 C0.35 5.32 -1.3 6.64 -3 8 C-3.66 7.67 -4.32 7.34 -5 7 C-4.0409375 6.1028125 -4.0409375 6.1028125 -3.0625 5.1875 C-0.79689611 3.09189663 -0.79689611 3.09189663 0 0 Z " fill="#0E2E6B" transform="translate(642,518)"/>
<path d="M0 0 C2.5 2.3125 2.5 2.3125 5 5 C5 5.99 5 6.98 5 8 C4.34 8 3.68 8 3 8 C0.95830515 5.09451118 0 3.59857954 0 0 Z " fill="#123067" transform="translate(399,491)"/>
<path d="M0 0 C4.39158329 1.4638611 4.87947433 3.97831338 7 8 C3.64379729 6.61122646 1.92701272 5.08322035 0 2 C0 1.34 0 0.68 0 0 Z " fill="#103067" transform="translate(324,464)"/>
<path d="M0 0 C3.36720387 1.39332574 4.9859524 2.9789286 7 6 C4 6 4 6 1.8125 4.125 C0 2 0 2 0 0 Z " fill="#10336B" transform="translate(311,448)"/>
<path d="M0 0 C0.66 0 1.32 0 2 0 C1.67 1.65 1.34 3.3 1 5 C1.66 5.33 2.32 5.66 3 6 C1.68 6 0.36 6 -1 6 C-1.042721 4.33388095 -1.04063832 2.66617115 -1 1 C-0.67 0.67 -0.34 0.34 0 0 Z " fill="#2A2E31" transform="translate(579,581)"/>
<path d="M0 0 C0.33 0 0.66 0 1 0 C1 5.61 1 11.22 1 17 C0.67 17 0.34 17 0 17 C0 11.39 0 5.78 0 0 Z " fill="#00004B" transform="translate(847,493)"/>
<path d="M0 0 C2.625 -0.1875 2.625 -0.1875 5 0 C3.68 1.65 2.36 3.3 1 5 C0.01 4.34 -0.98 3.68 -2 3 C-1.34 2.01 -0.68 1.02 0 0 Z " fill="#185443" transform="translate(158,441)"/>
<path d="M0 0 C0.99 0.495 0.99 0.495 2 1 C1.67 5.62 1.34 10.24 1 15 C0.67 15 0.34 15 0 15 C0 10.05 0 5.1 0 0 Z " fill="#002A4A" transform="translate(686,541)"/>
<path d="M0 0 C0.33 0 0.66 0 1 0 C1 5.28 1 10.56 1 16 C0.67 16 0.34 16 0 16 C0 10.72 0 5.44 0 0 Z " fill="#000030" transform="translate(162,450)"/>
<path d="M0 0 C0.33 0 0.66 0 1 0 C1 4.62 1 9.24 1 14 C0.67 14 0.34 14 0 14 C0 9.38 0 4.76 0 0 Z " fill="#000000" transform="translate(847,535)"/>
<path d="M0 0 C0.33 0 0.66 0 1 0 C1 3.96 1 7.92 1 12 C0.67 12 0.34 12 0 12 C0 8.04 0 4.08 0 0 Z " fill="#00000A" transform="translate(686,509)"/>
<path d="M0 0 C0.33 0 0.66 0 1 0 C1 3.96 1 7.92 1 12 C0.67 12 0.34 12 0 12 C0 8.04 0 4.08 0 0 Z " fill="#000000" transform="translate(246,451)"/>
<path d="M0 0 C0.33 0 0.66 0 1 0 C1 3.63 1 7.26 1 11 C0.67 11 0.34 11 0 11 C0 7.37 0 3.74 0 0 Z " fill="#000000" transform="translate(701,597)"/>
<path d="M0 0 C0.33 0 0.66 0 1 0 C1 3.3 1 6.6 1 10 C0.67 10 0.34 10 0 10 C0 6.7 0 3.4 0 0 Z " fill="#002A5D" transform="translate(214,557)"/>
<path d="M0 0 C3.3 0 6.6 0 10 0 C10 0.33 10 0.66 10 1 C6.7 1 3.4 1 0 1 C0 0.67 0 0.34 0 0 Z " fill="#000000" transform="translate(565,546)"/>
<path d="M0 0 C0.33 0 0.66 0 1 0 C1 2.97 1 5.94 1 9 C0.67 9 0.34 9 0 9 C0 6.03 0 3.06 0 0 Z " fill="#000000" transform="translate(542,596)"/>
<path d="M0 0 C0.33 0 0.66 0 1 0 C1 2.97 1 5.94 1 9 C0.67 9 0.34 9 0 9 C0 6.03 0 3.06 0 0 Z " fill="#000000" transform="translate(415,535)"/>
<path d="M0 0 C2.97 0 5.94 0 9 0 C9 0.33 9 0.66 9 1 C6.03 1 3.06 1 0 1 C0 0.67 0 0.34 0 0 Z " fill="#000038" transform="translate(837,488)"/>
<path d="M0 0 C0.33 0 0.66 0 1 0 C1 2.97 1 5.94 1 9 C0.67 9 0.34 9 0 9 C0 6.03 0 3.06 0 0 Z " fill="#00002A" transform="translate(769,402)"/>
<path d="M0 0 C0.66 0 1.32 0 2 0 C1.67 1.65 1.34 3.3 1 5 C0.67 5 0.34 5 0 5 C0 3.35 0 1.7 0 0 Z " fill="#000000" transform="translate(690,610)"/>
<path d="M0 0 C0.99 1.485 0.99 1.485 2 3 C1.34 4.32 0.68 5.64 0 7 C0 4.69 0 2.38 0 0 Z " fill="#000000" transform="translate(618,599)"/>
<path d="M0 0 C0.33 0 0.66 0 1 0 C1 2.64 1 5.28 1 8 C0.67 8 0.34 8 0 8 C0 5.36 0 2.72 0 0 Z " fill="#000000" transform="translate(573,585)"/>
<path d="M0 0 C0.33 0 0.66 0 1 0 C1 2.64 1 5.28 1 8 C0.67 8 0.34 8 0 8 C0 5.36 0 2.72 0 0 Z " fill="#000050" transform="translate(782,549)"/>
<path d="M0 0 C0.99 0.495 0.99 0.495 2 1 C1.67 2.98 1.34 4.96 1 7 C0.67 7 0.34 7 0 7 C0 4.69 0 2.38 0 0 Z " fill="#000A5A" transform="translate(746,533)"/>
<path d="M0 0 C0.33 0 0.66 0 1 0 C1 2.64 1 5.28 1 8 C0.67 8 0.34 8 0 8 C0 5.36 0 2.72 0 0 Z " fill="#000000" transform="translate(408,509)"/>
<path d="M0 0 C0.33 0 0.66 0 1 0 C1 2.64 1 5.28 1 8 C0.67 8 0.34 8 0 8 C0 5.36 0 2.72 0 0 Z " fill="#000000" transform="translate(486,493)"/>
<path d="M0 0 C0.33 0 0.66 0 1 0 C1 2.64 1 5.28 1 8 C0.67 8 0.34 8 0 8 C0 5.36 0 2.72 0 0 Z " fill="#000000" transform="translate(565,459)"/>
<path d="M0 0 C0.33 0 0.66 0 1 0 C1 2.31 1 4.62 1 7 C0.67 7 0.34 7 0 7 C0 4.69 0 2.38 0 0 Z " fill="#000000" transform="translate(618,609)"/>
<path d="M0 0 C0.33 0 0.66 0 1 0 C1 2.31 1 4.62 1 7 C0.67 7 0.34 7 0 7 C0 4.69 0 2.38 0 0 Z " fill="#000000" transform="translate(497,608)"/>
<path d="M0 0 C0.33 0 0.66 0 1 0 C1 2.31 1 4.62 1 7 C0.67 7 0.34 7 0 7 C0 4.69 0 2.38 0 0 Z " fill="#000000" transform="translate(701,586)"/>
<path d="M0 0 C0.33 0 0.66 0 1 0 C1 2.31 1 4.62 1 7 C0.67 7 0.34 7 0 7 C0 4.69 0 2.38 0 0 Z " fill="#000000" transform="translate(486,535)"/>
<path d="M0 0 C0.33 0.66 0.66 1.32 1 2 C-0.98 2 -2.96 2 -5 2 C-5 1.67 -5 1.34 -5 1 C-3.35 0.67 -1.7 0.34 0 0 Z " fill="#000924" transform="translate(127,515)"/>
<path d="M0 0 C0.33 0 0.66 0 1 0 C1 1.98 1 3.96 1 6 C0.67 6 0.34 6 0 6 C0 4.02 0 2.04 0 0 Z " fill="#000000" transform="translate(605,492)"/>
<path d="M0 0 C1.98 0 3.96 0 6 0 C6 0.33 6 0.66 6 1 C4.02 1 2.04 1 0 1 C0 0.67 0 0.34 0 0 Z " fill="#000000" transform="translate(829,488)"/>
<path d="M0 0 C1.98 0 3.96 0 6 0 C6 0.33 6 0.66 6 1 C4.02 1 2.04 1 0 1 C0 0.67 0 0.34 0 0 Z " fill="#000000" transform="translate(558,488)"/>
<path d="M0 0 C0.33 0 0.66 0 1 0 C1 1.65 1 3.3 1 5 C0.67 5 0.34 5 0 5 C0 3.35 0 1.7 0 0 Z " fill="#333333" transform="translate(629,601)"/>
<path d="M0 0 C0.33 0.99 0.66 1.98 1 3 C0.01 3.495 0.01 3.495 -1 4 C-0.67 2.68 -0.34 1.36 0 0 Z " fill="#000019" transform="translate(313,548)"/>
<path d="M0 0 C0.99 0.33 1.98 0.66 3 1 C2.34 1 1.68 1 1 1 C0.67 1.66 0.34 2.32 0 3 C0 2.01 0 1.02 0 0 Z " fill="#000019" transform="translate(275,448)"/>
<path d="M0 0 C0.33 0 0.66 0 1 0 C1 1.65 1 3.3 1 5 C0.67 5 0.34 5 0 5 C0 3.35 0 1.7 0 0 Z " fill="#000000" transform="translate(162,405)"/>
<path d="M0 0 C0.33 0 0.66 0 1 0 C1 1.65 1 3.3 1 5 C0.67 5 0.34 5 0 5 C0 3.35 0 1.7 0 0 Z " fill="#000019" transform="translate(629,401)"/>
<path d="M0 0 C0.99 0.33 1.98 0.66 3 1 C2.01 1.33 1.02 1.66 0 2 C0 1.34 0 0.68 0 0 Z " fill="#000000" transform="translate(475,604)"/>
<path d="M0 0 C1 4 1 4 1 4 Z " fill="#000000" transform="translate(464,584)"/>
<path d="M0 0 C4 1 4 1 4 1 Z " fill="#000000" transform="translate(667,581)"/>
<path d="M0 0 C1 4 1 4 1 4 Z " fill="#000060" transform="translate(371,555)"/>
<path d="M0 0 C1 4 1 4 1 4 Z " fill="#000000" transform="translate(778,550)"/>
<path d="M0 0 C1 4 1 4 1 4 Z " fill="#000000" transform="translate(486,550)"/>
<path d="M0 0 C1 4 1 4 1 4 Z " fill="#000060" transform="translate(662,519)"/>
<path d="M0 0 C1 4 1 4 1 4 Z " fill="#000000" transform="translate(722,514)"/>
<path d="M0 0 C1 4 1 4 1 4 Z " fill="#000000" transform="translate(565,469)"/>
<path d="M0 0 C3 1 3 1 3 1 Z " fill="#000000" transform="translate(612,617)"/>
<path d="M0 0 C3 1 3 1 3 1 Z " fill="#000000" transform="translate(625,615)"/>
<path d="M0 0 C0.66 0.66 1.32 1.32 2 2 C1.34 2 0.68 2 0 2 C0 1.34 0 0.68 0 0 Z " fill="#000000" transform="translate(718,609)"/>
<path d="M0 0 C3 1 3 1 3 1 Z " fill="#000000" transform="translate(515,599)"/>
<path d="M0 0 C3 1 3 1 3 1 Z " fill="#000000" transform="translate(511,599)"/>
<path d="" fill="#000000" transform="translate(0,0)"/>
<path d="" fill="#000000" transform="translate(0,0)"/>
<path d="M0 0 C0.99 0.495 0.99 0.495 2 1 C1.01 1.495 1.01 1.495 0 2 C0 1.34 0 0.68 0 0 Z " fill="#000000" transform="translate(361,582)"/>
<path d="M0 0 C3 1 3 1 3 1 Z " fill="#000000" transform="translate(467,581)"/>
<path d="" fill="#000000" transform="translate(0,0)"/>
<path d="" fill="#000000" transform="translate(0,0)"/>
<path d="" fill="#000055" transform="translate(0,0)"/>
<path d="" fill="#00002A" transform="translate(0,0)"/>
<path d="M0 0 C3 1 3 1 3 1 Z " fill="#001C1C" transform="translate(486,533)"/>
<path d="" fill="#000000" transform="translate(0,0)"/>
<path d="" fill="#00002A" transform="translate(0,0)"/>
<path d="" fill="#00002A" transform="translate(0,0)"/>
<path d="M0 0 C3 1 3 1 3 1 Z " fill="#000000" transform="translate(561,474)"/>
<path d="" fill="#00002A" transform="translate(0,0)"/>
<path d="M0 0 C0.33 0.66 0.66 1.32 1 2 C0.34 1.67 -0.32 1.34 -1 1 C-0.67 0.67 -0.34 0.34 0 0 Z " fill="#000000" transform="translate(518,466)"/>
<path d="" fill="#000000" transform="translate(0,0)"/>
<path d="" fill="#000000" transform="translate(0,0)"/>
<path d="M0 0 C2 1 2 1 2 1 Z " fill="#000000" transform="translate(670,617)"/>
<path d="" fill="#000000" transform="translate(0,0)"/>
<path d="M0 0 C2 1 2 1 2 1 Z " fill="#000000" transform="translate(512,608)"/>
<path d="" fill="#000000" transform="translate(0,0)"/>
<path d="" fill="#000000" transform="translate(0,0)"/>
<path d="" fill="#000000" transform="translate(0,0)"/>
<path d="" fill="#4A4A4A" transform="translate(0,0)"/>
<path d="" fill="#000000" transform="translate(0,0)"/>
<path d="M0 0 C2 1 2 1 2 1 Z " fill="#000000" transform="translate(357,585)"/>
<path d="" fill="#000000" transform="translate(0,0)"/>
<path d="M0 0 C2 1 2 1 2 1 Z " fill="#000000" transform="translate(694,581)"/>
<path d="" fill="#000080" transform="translate(0,0)"/>
<path d="" fill="#000040" transform="translate(0,0)"/>
<path d="" fill="#000000" transform="translate(0,0)"/>
<path d="" fill="#000000" transform="translate(0,0)"/>
<path d="" fill="#000080" transform="translate(0,0)"/>
<path d="" fill="#000000" transform="translate(0,0)"/>
<path d="M0 0 C2 1 2 1 2 1 Z " fill="#000040" transform="translate(336,553)"/>
<path d="" fill="#000000" transform="translate(0,0)"/>
<path d="" fill="#000040" transform="translate(0,0)"/>
<path d="M0 0 C2 1 2 1 2 1 Z " fill="#000000" transform="translate(562,546)"/>
<path d="M0 0 C2 1 2 1 2 1 Z " fill="#000000" transform="translate(559,546)"/>
<path d="M0 0 C2 1 2 1 2 1 Z " fill="#000000" transform="translate(862,537)"/>
<path d="" fill="#000040" transform="translate(0,0)"/>
<path d="" fill="#000000" transform="translate(0,0)"/>
<path d="" fill="#000000" transform="translate(0,0)"/>
<path d="" fill="#000000" transform="translate(0,0)"/>
<path d="" fill="#000000" transform="translate(0,0)"/>
<path d="M0 0 C2 1 2 1 2 1 Z " fill="#000040" transform="translate(746,515)"/>
<path d="" fill="#000000" transform="translate(0,0)"/>
<path d="" fill="#000040" transform="translate(0,0)"/>
<path d="" fill="#000040" transform="translate(0,0)"/>
<path d="M0 0 C2 1 2 1 2 1 Z " fill="#000040" transform="translate(746,507)"/>
<path d="M0 0 C2 1 2 1 2 1 Z " fill="#000040" transform="translate(686,507)"/>
<path d="" fill="#000000" transform="translate(0,0)"/>
<path d="" fill="#000000" transform="translate(0,0)"/>
<path d="" fill="#000000" transform="translate(0,0)"/>
<path d="" fill="#000000" transform="translate(0,0)"/>
<path d="" fill="#000000" transform="translate(0,0)"/>
<path d="" fill="#001973" transform="translate(0,0)"/>
<path d="" fill="#000000" transform="translate(0,0)"/>
<path d="" fill="#000000" transform="translate(0,0)"/>
<path d="" fill="#000000" transform="translate(0,0)"/>
<path d="" fill="#000000" transform="translate(0,0)"/>
<path d="" fill="#000000" transform="translate(0,0)"/>
<path d="" fill="#000000" transform="translate(0,0)"/>
<path d="" fill="#000000" transform="translate(0,0)"/>
<path d="" fill="#000000" transform="translate(0,0)"/>
<path d="" fill="#000000" transform="translate(0,0)"/>
<path d="" fill="#000000" transform="translate(0,0)"/>
<path d="" fill="#000000" transform="translate(0,0)"/>
<path d="" fill="#000000" transform="translate(0,0)"/>
<path d="" fill="#000000" transform="translate(0,0)"/>
<path d="" fill="#000000" transform="translate(0,0)"/>
<path d="" fill="#000000" transform="translate(0,0)"/>
<path d="" fill="#000000" transform="translate(0,0)"/>
<path d="" fill="#000000" transform="translate(0,0)"/>
<path d="" fill="#000000" transform="translate(0,0)"/>
<path d="" fill="#000000" transform="translate(0,0)"/>
<path d="" fill="#000000" transform="translate(0,0)"/>
<path d="" fill="#000000" transform="translate(0,0)"/>
<path d="" fill="#000000" transform="translate(0,0)"/>
<path d="" fill="#000000" transform="translate(0,0)"/>
<path d="" fill="#000000" transform="translate(0,0)"/>
<path d="" fill="#000000" transform="translate(0,0)"/>
<path d="" fill="#000000" transform="translate(0,0)"/>
<path d="" fill="#000000" transform="translate(0,0)"/>
<path d="" fill="#000000" transform="translate(0,0)"/>
<path d="" fill="#000000" transform="translate(0,0)"/>
<path d="" fill="#000000" transform="translate(0,0)"/>
<path d="" fill="#000000" transform="translate(0,0)"/>
<path d="" fill="#000080" transform="translate(0,0)"/>
<path d="" fill="#000000" transform="translate(0,0)"/>
<path d="" fill="#000000" transform="translate(0,0)"/>
<path d="" fill="#000000" transform="translate(0,0)"/>
<path d="" fill="#000000" transform="translate(0,0)"/>
<path d="" fill="#000080" transform="translate(0,0)"/>
<path d="" fill="#000000" transform="translate(0,0)"/>
<path d="" fill="#005555" transform="translate(0,0)"/>
<path d="" fill="#000000" transform="translate(0,0)"/>
<path d="" fill="#000080" transform="translate(0,0)"/>
<path d="" fill="#000000" transform="translate(0,0)"/>
<path d="" fill="#000080" transform="translate(0,0)"/>
<path d="" fill="#000080" transform="translate(0,0)"/>
<path d="" fill="#000080" transform="translate(0,0)"/>
<path d="" fill="#000000" transform="translate(0,0)"/>
<path d="" fill="#000000" transform="translate(0,0)"/>
<path d="" fill="#000000" transform="translate(0,0)"/>
<path d="" fill="#000000" transform="translate(0,0)"/>
<path d="" fill="#000000" transform="translate(0,0)"/>
<path d="" fill="#000000" transform="translate(0,0)"/>
<path d="" fill="#000000" transform="translate(0,0)"/>
<path d="" fill="#000000" transform="translate(0,0)"/>
<path d="" fill="#000000" transform="translate(0,0)"/>
<path d="" fill="#000080" transform="translate(0,0)"/>
<path d="" fill="#000000" transform="translate(0,0)"/>
<path d="" fill="#000000" transform="translate(0,0)"/>
<path d="" fill="#000000" transform="translate(0,0)"/>
<path d="" fill="#000000" transform="translate(0,0)"/>
<path d="" fill="#000000" transform="translate(0,0)"/>
<path d="" fill="#000000" transform="translate(0,0)"/>
<path d="" fill="#000080" transform="translate(0,0)"/>
<path d="" fill="#000000" transform="translate(0,0)"/>
<path d="" fill="#000000" transform="translate(0,0)"/>
<path d="" fill="#000080" transform="translate(0,0)"/>
<path d="" fill="#000000" transform="translate(0,0)"/>
<path d="" fill="#000000" transform="translate(0,0)"/>
<path d="" fill="#000000" transform="translate(0,0)"/>
<path d="" fill="#000000" transform="translate(0,0)"/>
<path d="" fill="#000000" transform="translate(0,0)"/>
<path d="" fill="#000000" transform="translate(0,0)"/>
<path d="" fill="#000000" transform="translate(0,0)"/>
<path d="" fill="#000000" transform="translate(0,0)"/>
<path d="" fill="#000080" transform="translate(0,0)"/>
<path d="" fill="#000000" transform="translate(0,0)"/>
<path d="" fill="#000000" transform="translate(0,0)"/>
<path d="" fill="#000000" transform="translate(0,0)"/>
<path d="" fill="#000000" transform="translate(0,0)"/>
<path d="" fill="#000080" transform="translate(0,0)"/>
<path d="" fill="#000000" transform="translate(0,0)"/>
<path d="" fill="#000080" transform="translate(0,0)"/>
<path d="" fill="#000000" transform="translate(0,0)"/>
<path d="" fill="#000080" transform="translate(0,0)"/>
<path d="" fill="#000000" transform="translate(0,0)"/>
<path d="" fill="#000000" transform="translate(0,0)"/>
<path d="" fill="#000000" transform="translate(0,0)"/>
<path d="" fill="#000000" transform="translate(0,0)"/>
<path d="" fill="#000000" transform="translate(0,0)"/>
<path d="" fill="#000000" transform="translate(0,0)"/>
<path d="" fill="#000000" transform="translate(0,0)"/>
<path d="" fill="#000000" transform="translate(0,0)"/>
<path d="" fill="#000000" transform="translate(0,0)"/>
<path d="" fill="#000000" transform="translate(0,0)"/>
<path d="" fill="#000000" transform="translate(0,0)"/>
<path d="" fill="#000000" transform="translate(0,0)"/>
<path d="" fill="#000080" transform="translate(0,0)"/>
<path d="" fill="#000000" transform="translate(0,0)"/>
<path d="" fill="#000000" transform="translate(0,0)"/>
<path d="" fill="#000000" transform="translate(0,0)"/>
<path d="" fill="#000000" transform="translate(0,0)"/>
<path d="" fill="#000000" transform="translate(0,0)"/>
<path d="" fill="#000000" transform="translate(0,0)"/>
<path d="" fill="#000000" transform="translate(0,0)"/>
<path d="" fill="#000000" transform="translate(0,0)"/>
<path d="" fill="#000080" transform="translate(0,0)"/>
<path d="" fill="#005555" transform="translate(0,0)"/>
<path d="" fill="#000000" transform="translate(0,0)"/>
<path d="" fill="#000080" transform="translate(0,0)"/>
<path d="" fill="#000000" transform="translate(0,0)"/>
<path d="" fill="#000000" transform="translate(0,0)"/>
<path d="" fill="#000000" transform="translate(0,0)"/>
<path d="" fill="#000000" transform="translate(0,0)"/>
<path d="" fill="#000000" transform="translate(0,0)"/>
<path d="" fill="#000000" transform="translate(0,0)"/>
</svg>
